<?xml version="1.0" encoding="utf-8"?>
<!-- Generator: Adobe Illustrator 21.0.0, SVG Export Plug-In . SVG Version: 6.00 Build 0)  -->
<svg version="1.1" id="Layer_1" xmlns="http://www.w3.org/2000/svg" xmlns:xlink="http://www.w3.org/1999/xlink" x="0px" y="0px"
	 width="1400px" height="980px" viewBox="0 0 1400 980" style="enable-background:new 0 0 1400 980;" xml:space="preserve">
<style type="text/css">
	.st0{fill-rule:evenodd;clip-rule:evenodd;fill:#00AEA1;}
	.st1{fill-rule:evenodd;clip-rule:evenodd;fill:#00976C;}
	.st2{fill-rule:evenodd;clip-rule:evenodd;fill:#C2E4EC;}
	.st3{fill-rule:evenodd;clip-rule:evenodd;fill:#E9D251;}
	.st4{fill-rule:evenodd;clip-rule:evenodd;fill:#F06131;}
	.st5{fill-rule:evenodd;clip-rule:evenodd;fill:#2CAB57;}
	.st6{fill-rule:evenodd;clip-rule:evenodd;fill:#1C7EC2;}
	.st7{fill-rule:evenodd;clip-rule:evenodd;fill:#866BAD;}
	.st8{fill-rule:evenodd;clip-rule:evenodd;fill:#196131;}
	.st9{fill-rule:evenodd;clip-rule:evenodd;fill:#3A4C9D;}
	.st10{fill-rule:evenodd;clip-rule:evenodd;fill:#F1577D;}
	.st11{fill-rule:evenodd;clip-rule:evenodd;fill:#EBBC2E;}
	.st12{fill-rule:evenodd;clip-rule:evenodd;fill:#12A89D;}
	.st13{fill-rule:evenodd;clip-rule:evenodd;fill:#FFC600;}
	.st14{fill-rule:evenodd;clip-rule:evenodd;fill:#FFFFFF;}
	.st15{fill-rule:evenodd;clip-rule:evenodd;fill:#077D75;}
	.st16{fill-rule:evenodd;clip-rule:evenodd;fill:#D2E28B;}
	.st17{fill-rule:evenodd;clip-rule:evenodd;fill:#FF6699;}
	.st18{fill-rule:evenodd;clip-rule:evenodd;fill:#F6D621;}
	.st19{fill-rule:evenodd;clip-rule:evenodd;fill:#3E73A8;}
</style>
<g>
	<rect y="0" class="st0" width="314.4" height="488.5"/>
	<rect x="314.4" y="643.2" class="st1" width="421.4" height="336.8"/>
	<rect x="314.4" y="335.8" class="st2" width="771.3" height="307.4"/>
	<rect x="314.4" y="0" class="st3" width="504.5" height="335.8"/>
	<rect y="488.5" class="st4" width="314.4" height="491.5"/>
	<g>
		<g>
			<polygon class="st5" points="394.9,413.4 394.9,470.6 395,470.7 426.7,470.7 426.7,413.3 395,413.3 			"/>
			<path class="st3" d="M636.4,413.6v57l0.1,0.1h56.6v-0.1L665.1,442l28.1-28.5v0c-57.1,0-40.1,0-56.6,0L636.4,413.6z"/>
			<path class="st6" d="M621.6,421.8c-5.9-5.3-12.4-8-19.6-8h-0.8c-7.6,0-14.4,2.9-20.4,8.8c-5.3,5.9-8,12.4-8,19.6
				c0,7.2,2.7,13.7,8,19.6c6,5.9,12.8,8.8,20.4,8.8h0.8c7.2,0,13.7-2.7,19.6-8c3.4-3.5,5.8-7.2,7.3-11.3l-27.2-9.2l27.2-9.2
				C627.5,429.1,625,425.3,621.6,421.8z"/>
			<path class="st7" d="M602.1,413.9h-0.8c-7.6,0-14.4,2.9-20.4,8.8c-5.3,5.9-8,12.4-8,19.6c0,3.2,0.5,6.3,1.6,9.2l27.2-9.2
				l27.2-9.2c-1.4-4-3.9-7.8-7.3-11.3C615.8,416.5,609.2,413.9,602.1,413.9z"/>
			<polygon class="st1" points="636.5,413.5 636.4,413.6 636.4,470.6 636.5,470.7 693.2,470.7 693.2,470.7 665.1,442 			"/>
			<path class="st3" d="M426.7,413.3c-9.9,0-17.9,8-17.9,17.9c0,4.1,1.4,7.8,3.7,10.8c-2.3,3-3.7,6.8-3.7,10.8
				c0,9.9,8,17.9,17.9,17.9c9.9,0,17.9-8,17.9-17.9c0-4.1-1.4-7.8-3.7-10.8c2.3-3,3.7-6.8,3.7-10.8
				C444.6,421.3,436.6,413.3,426.7,413.3z"/>
			<rect x="453.2" y="442" class="st7" width="46.3" height="28.7"/>
			<path class="st8" d="M426.7,413.3v57.4c9.9,0,17.9-8,17.9-17.9c0-4.1-1.4-7.8-3.7-10.8c2.3-3,3.7-6.8,3.7-10.8
				C444.6,421.3,436.6,413.3,426.7,413.3z"/>
			<rect x="453.2" y="413.7" class="st0" width="28.7" height="57"/>
			<path class="st4" d="M539.9,413.1c-15.9,0-28.8,12.9-28.8,28.8c0,15.9,12.9,28.8,28.8,28.8c15.9,0,28.8-12.9,28.8-28.8
				C568.7,426.1,555.7,413.1,539.9,413.1z"/>
			<g>
				<path class="st0" d="M760.9,413.6h-28.6l-0.1,0.1l0.1,57h0.1l0.1,0.1h28.4l0.1-0.1C760.9,451.6,760.9,432.7,760.9,413.6z"/>
				<path class="st4" d="M802.6,413.5L802.6,413.5L774,470.7h0.1l0.1,0.1c46.7,0,9,0,56.6,0l0.1-0.1l-21.5-43.8
					C805.5,419.3,803.3,414.8,802.6,413.5z"/>
				<path class="st0" d="M802.6,442.7L802.6,442.7l-14.1,28h27.9l-7.2-14.7C805.5,448.4,803.3,444,802.6,442.7z"/>
				<path class="st5" d="M881.5,417c-4.5-2.5-9-3.8-13.7-3.8c-30.8,0-13.5,0-35.8,0l-0.1,0.1v0.2v57l0.1,0.1h0.1h56.6v-0.1l-1-1
					l-20-20.4c3.1,0,6.5-0.7,10.1-2c7.5-3.1,11.2-8.3,11.2-15.7v-0.7C889,425,886.5,420.4,881.5,417z"/>
				<path class="st3" d="M890.4,413.9l-0.1,0.1v21l0.1,0.1h14.1v35.4l0.1,0.1h28.1l0.1-0.1v-35.4h14.1l0.1-0.1v-21l-0.1-0.1
					C899.8,413.9,936.7,413.9,890.4,413.9z"/>
				<path class="st7" d="M1005,413.8c-47,0-10.1,0-56.6,0l-0.1,0.1l14.2,35.7v21.1l0.1,0.1h28.1l0.1-0.1v-21.4l14.2-35.4L1005,413.8
					L1005,413.8z"/>
				<path class="st5" d="M760.9,413.7c-9.9,0-17.9,8-17.9,17.9c0,9.9,8,17.9,17.9,17.9c9.9,0,17.9-8,17.9-17.9
					C778.8,421.7,770.7,413.7,760.9,413.7z"/>
				<path class="st8" d="M760.9,413.7c-9.9,0-17.9,8-17.9,17.9c0,9.9,8,17.9,17.9,17.9h0C760.9,437.5,760.9,425.6,760.9,413.7z"/>
				<path class="st9" d="M976.8,441.8L976.8,441.8c0.8-1.3,3-5.7,6.7-13.3l7.2-14.7h-27.9L976.8,441.8z"/>
				<polygon class="st9" points="832.1,413.5 832,413.6 832,470.6 832.1,470.7 888.7,470.7 888.7,470.7 860.6,442 				"/>
				<path class="st6" d="M890.4,413.9l-0.1,0.1v21l0.1,0.1c13.6,0,42.9,0,56.5,0l0.1-0.1v-21l-0.1-0.1
					C899.8,413.9,936.7,413.9,890.4,413.9z"/>
			</g>
			<rect x="531.2" y="426.2" class="st0" width="17.4" height="31.4"/>
		</g>
		<path class="st8" d="M519.2,526.1c-1.4,0-2.4,0.5-3.3,1.4c-0.8,1-1.2,2.3-1.2,3.9c0,1.6,0.4,2.9,1.3,3.8c0.9,0.9,2.1,1.4,3.6,1.4
			c0.7,0,1.3,0,1.8-0.2c0.5-0.1,1-0.3,1.5-0.5v-1.4c-1.1,0.5-2.2,0.7-3.2,0.7c-1,0-1.8-0.3-2.4-0.9c-0.6-0.6-0.9-1.5-0.9-2.7h7v-1
			c0-1.4-0.4-2.5-1.1-3.3C521.4,526.5,520.4,526.1,519.2,526.1z M516.3,530.4c0.1-0.9,0.4-1.7,0.9-2.2c0.5-0.5,1.1-0.8,2-0.8
			c0.8,0,1.4,0.3,1.9,0.8c0.4,0.5,0.6,1.3,0.6,2.2H516.3z"/>
		<path class="st8" d="M509.7,530.7c-0.9-0.3-1.5-0.6-1.8-0.7c-0.3-0.2-0.5-0.4-0.7-0.5c-0.1-0.2-0.2-0.4-0.2-0.7
			c0-0.4,0.2-0.7,0.6-0.9c0.4-0.2,0.9-0.3,1.7-0.3c0.8,0,1.8,0.2,2.8,0.6l0.5-1.3c-1-0.4-2.1-0.7-3.2-0.7c-1.2,0-2.1,0.2-2.8,0.7
			c-0.7,0.5-1,1.1-1,2c0,0.5,0.1,0.9,0.3,1.2c0.2,0.3,0.5,0.6,0.9,0.9c0.4,0.3,1.1,0.6,2,0.9c1,0.4,1.7,0.7,2,1
			c0.3,0.3,0.5,0.6,0.5,1c0,0.5-0.2,0.9-0.7,1.2c-0.4,0.3-1,0.4-1.9,0.4c-0.5,0-1.1-0.1-1.6-0.2c-0.6-0.1-1.1-0.3-1.6-0.6v1.4
			c0.8,0.4,1.8,0.6,3.2,0.6c1.3,0,2.3-0.3,3-0.8s1.1-1.2,1.1-2.2c0-0.7-0.2-1.2-0.6-1.7C511.7,531.5,510.9,531.1,509.7,530.7z"/>
		<path class="st8" d="M526.1,510.4c0.5,0.2,1.2,0.4,1.8,0.4c1.3,0,2.4-0.5,3.1-1.4c0.7-0.9,1.1-2.2,1.1-3.9c0-1.7-0.4-3-1.1-3.9
			c-0.7-0.9-1.8-1.4-3.1-1.4c-0.7,0-1.3,0.1-1.8,0.4c-0.5,0.2-1,0.7-1.4,1.2h-0.1l-0.2-1.4h-1.3v14.7h1.5v-4.2c0-0.5,0-1.1-0.1-1.7
			h0.1C525.1,509.8,525.6,510.1,526.1,510.4z M524.8,505.1c0-1.3,0.3-2.2,0.7-2.8c0.5-0.6,1.2-0.9,2.3-0.9c0.9,0,1.6,0.3,2.1,1
			c0.5,0.7,0.7,1.7,0.7,2.9c0,1.2-0.3,2.2-0.7,2.9c-0.5,0.7-1.2,1.1-2.1,1.1c-1.1,0-1.8-0.3-2.3-0.9c-0.5-0.6-0.7-1.6-0.7-3.1V505.1
			z"/>
		<rect x="882" y="500.4" class="st8" width="1.5" height="10.2"/>
		<rect x="842.6" y="500.4" class="st8" width="1.5" height="10.2"/>
		<path class="st8" d="M843.4,498.7c0.2,0,0.5-0.1,0.6-0.3c0.2-0.2,0.3-0.4,0.3-0.8c0-0.3-0.1-0.6-0.3-0.8c-0.2-0.2-0.4-0.2-0.6-0.2
			c-0.3,0-0.5,0.1-0.6,0.2c-0.2,0.2-0.3,0.4-0.3,0.8c0,0.4,0.1,0.6,0.3,0.8C842.9,498.6,843.1,498.7,843.4,498.7z"/>
		<path class="st8" d="M508.2,502.1c0.3,0.4,0.5,1,0.5,1.8v6.6h1.5v-6.6c0-1.3-0.3-2.2-0.9-2.8c-0.6-0.6-1.4-0.9-2.6-0.9
			c-0.7,0-1.4,0.2-2,0.5c-0.6,0.3-1,0.7-1.3,1.3h-0.1c-0.5-1.2-1.5-1.7-3.1-1.7c-0.7,0-1.2,0.1-1.8,0.4c-0.5,0.3-0.9,0.7-1.2,1.2
			h-0.1l-0.3-1.4h-1.2v10.2h1.5v-5.3c0-1.3,0.2-2.3,0.7-2.8c0.4-0.6,1.2-0.9,2.1-0.9c0.7,0,1.3,0.2,1.6,0.6c0.3,0.4,0.5,1,0.5,1.8
			v6.6h1.5v-5.7c0-1.1,0.2-2,0.7-2.5c0.5-0.6,1.2-0.8,2.1-0.8C507.4,501.5,507.9,501.7,508.2,502.1z"/>
		<path class="st8" d="M492.7,508.7c-1.1,0.5-2.2,0.7-3.2,0.7c-1,0-1.8-0.3-2.4-0.9c-0.6-0.6-0.9-1.5-0.9-2.7h7v-1
			c0-1.4-0.4-2.5-1.1-3.3c-0.7-0.8-1.7-1.3-3-1.3c-1.4,0-2.4,0.5-3.3,1.4c-0.8,1-1.2,2.3-1.2,3.9c0,1.6,0.4,2.9,1.3,3.8
			c0.9,0.9,2.1,1.4,3.6,1.4c0.7,0,1.3-0.1,1.8-0.2c0.5-0.1,1-0.3,1.5-0.5V508.7z M487.1,502.3c0.5-0.5,1.1-0.8,2-0.8
			c0.8,0,1.4,0.3,1.9,0.8c0.4,0.5,0.6,1.3,0.6,2.2h-5.3C486.3,503.6,486.6,502.8,487.1,502.3z"/>
		<path class="st8" d="M859.8,498.7c0.2,0,0.5-0.1,0.6-0.3c0.2-0.2,0.3-0.4,0.3-0.8c0-0.3-0.1-0.6-0.3-0.8c-0.2-0.2-0.4-0.2-0.6-0.2
			c-0.3,0-0.5,0.1-0.6,0.2c-0.2,0.2-0.3,0.4-0.3,0.8c0,0.4,0.1,0.6,0.3,0.8C859.4,498.6,859.6,498.7,859.8,498.7z"/>
		<rect x="859.1" y="500.4" class="st8" width="1.5" height="10.2"/>
		<path class="st8" d="M495.7,530.7c-0.9-0.3-1.5-0.6-1.8-0.7c-0.3-0.2-0.5-0.4-0.7-0.5c-0.1-0.2-0.2-0.4-0.2-0.7
			c0-0.4,0.2-0.7,0.6-0.9c0.4-0.2,0.9-0.3,1.7-0.3c0.8,0,1.8,0.2,2.8,0.6l0.5-1.3c-1-0.4-2.1-0.7-3.2-0.7c-1.2,0-2.1,0.2-2.8,0.7
			c-0.7,0.5-1,1.1-1,2c0,0.5,0.1,0.9,0.3,1.2c0.2,0.3,0.5,0.6,0.9,0.9c0.4,0.3,1.1,0.6,2,0.9c1,0.4,1.7,0.7,2,1
			c0.3,0.3,0.5,0.6,0.5,1c0,0.5-0.2,0.9-0.6,1.2c-0.4,0.3-1.1,0.4-1.9,0.4c-0.5,0-1.1-0.1-1.6-0.2c-0.6-0.1-1.1-0.3-1.6-0.6v1.4
			c0.8,0.4,1.8,0.6,3.2,0.6c1.3,0,2.3-0.3,3-0.8c0.7-0.5,1.1-1.2,1.1-2.2c0-0.7-0.2-1.2-0.6-1.7
			C497.7,531.5,496.9,531.1,495.7,530.7z"/>
		<path class="st8" d="M589.3,558.9c-0.4,1-0.6,1.7-0.6,2h-0.1c-0.1-0.4-0.4-1.3-0.9-2.7l-2.2-6h-1.7l3.9,10.2h1.8l3.9-10.2h-1.7
			C590.5,555.6,589.7,557.9,589.3,558.9z"/>
		<path class="st8" d="M567.6,526.1c-0.6,0-1.2,0.1-1.8,0.2c-0.6,0.2-1.1,0.4-1.6,0.6l0.5,1.2c1.1-0.5,2-0.8,2.9-0.8
			c0.8,0,1.3,0.2,1.6,0.6c0.3,0.4,0.5,1,0.5,1.8v0.6l-1.7,0.1c-3.3,0.1-4.9,1.2-4.9,3.2c0,1,0.3,1.7,0.9,2.2
			c0.6,0.5,1.4,0.8,2.4,0.8c0.8,0,1.4-0.1,1.9-0.3c0.5-0.2,1-0.7,1.5-1.3h0.1l0.3,1.4h1.1v-6.9c0-1.2-0.3-2.1-0.9-2.6
			C569.7,526.4,568.8,526.1,567.6,526.1z M569.6,532.4c0,0.9-0.3,1.7-0.8,2.2c-0.5,0.5-1.3,0.8-2.3,0.8c-0.6,0-1.1-0.1-1.4-0.4
			c-0.3-0.3-0.5-0.7-0.5-1.3c0-0.7,0.3-1.2,0.8-1.6c0.5-0.3,1.4-0.5,2.6-0.6l1.5-0.1V532.4z"/>
		<path class="st8" d="M586.8,528c0.3,0.4,0.5,1,0.5,1.8v6.6h1.5v-6.6c0-1.3-0.3-2.2-0.9-2.8c-0.6-0.6-1.4-0.9-2.6-0.9
			c-0.7,0-1.4,0.2-2,0.5c-0.6,0.3-1,0.7-1.3,1.3H582c-0.5-1.2-1.5-1.7-3.1-1.7c-0.7,0-1.2,0.1-1.8,0.4c-0.5,0.3-0.9,0.7-1.2,1.2
			h-0.1l-0.3-1.4h-1.3v10.2h1.5v-5.3c0-1.3,0.2-2.3,0.7-2.8c0.4-0.6,1.2-0.9,2.1-0.9c0.7,0,1.3,0.2,1.6,0.6c0.3,0.4,0.5,1,0.5,1.8
			v6.6h1.5v-5.7c0-1.1,0.2-2,0.7-2.5c0.5-0.6,1.2-0.8,2.1-0.8C585.9,527.4,586.4,527.6,586.8,528z"/>
		<rect x="929.3" y="500.4" class="st8" width="1.5" height="10.2"/>
		<path class="st8" d="M598.9,552c-1.4,0-2.4,0.5-3.3,1.4c-0.8,1-1.2,2.3-1.2,3.9c0,1.6,0.4,2.9,1.3,3.8c0.9,0.9,2.1,1.4,3.6,1.4
			c0.7,0,1.3,0,1.8-0.2c0.5-0.1,1-0.3,1.5-0.5v-1.4c-1.1,0.5-2.2,0.7-3.2,0.7c-1,0-1.8-0.3-2.4-0.9c-0.6-0.6-0.9-1.5-0.9-2.7h7v-1
			c0-1.4-0.4-2.5-1.1-3.3C601.2,552.4,600.2,552,598.9,552z M596.1,556.3c0.1-0.9,0.4-1.7,0.9-2.2c0.5-0.5,1.1-0.8,2-0.8
			c0.8,0,1.4,0.3,1.9,0.8c0.4,0.5,0.6,1.3,0.6,2.2H596.1z"/>
		<rect x="605.7" y="547.9" class="st8" width="1.5" height="14.4"/>
		<path class="st8" d="M930,498.7c0.2,0,0.5-0.1,0.6-0.3c0.2-0.2,0.3-0.4,0.3-0.8c0-0.3-0.1-0.6-0.3-0.8c-0.2-0.2-0.4-0.2-0.6-0.2
			c-0.3,0-0.5,0.1-0.7,0.2c-0.2,0.2-0.3,0.4-0.3,0.8c0,0.4,0.1,0.6,0.3,0.8C929.6,498.6,929.8,498.7,930,498.7z"/>
		<path class="st8" d="M563.6,510.6v-5.7c0-1.1,0.2-2,0.7-2.5c0.5-0.6,1.2-0.8,2.1-0.8c0.7,0,1.3,0.2,1.6,0.6c0.3,0.4,0.5,1,0.5,1.8
			v6.6h1.5v-6.6c0-1.3-0.3-2.2-0.9-2.8c-0.6-0.6-1.4-0.9-2.6-0.9c-0.7,0-1.4,0.2-2,0.5c-0.6,0.3-1,0.7-1.3,1.3h-0.1
			c-0.5-1.2-1.5-1.7-3.1-1.7c-0.7,0-1.2,0.1-1.8,0.4c-0.5,0.3-0.9,0.7-1.2,1.2h-0.1l-0.3-1.4h-1.3v10.2h1.5v-5.3
			c0-1.3,0.2-2.3,0.7-2.8c0.4-0.6,1.2-0.9,2.1-0.9c0.7,0,1.3,0.2,1.6,0.6c0.3,0.4,0.5,1,0.5,1.8v6.6H563.6z"/>
		<rect x="559" y="522" class="st8" width="1.5" height="14.4"/>
		<path class="st8" d="M538.3,504.8c-0.9-0.3-1.5-0.6-1.8-0.8c-0.3-0.2-0.5-0.4-0.7-0.5c-0.1-0.2-0.2-0.4-0.2-0.7
			c0-0.4,0.2-0.7,0.6-0.9c0.4-0.2,0.9-0.3,1.7-0.3c0.8,0,1.8,0.2,2.8,0.6l0.5-1.3c-1-0.4-2.1-0.7-3.2-0.7c-1.2,0-2.1,0.2-2.8,0.7
			c-0.7,0.5-1,1.1-1,2c0,0.5,0.1,0.9,0.3,1.2c0.2,0.3,0.5,0.6,0.9,0.9c0.4,0.3,1.1,0.6,2,0.9c1,0.4,1.7,0.7,2,1
			c0.3,0.3,0.5,0.6,0.5,1c0,0.5-0.2,0.9-0.6,1.2c-0.4,0.3-1,0.4-1.9,0.4c-0.5,0-1.1-0.1-1.6-0.2c-0.6-0.1-1.1-0.3-1.6-0.6v1.4
			c0.8,0.4,1.8,0.6,3.2,0.6c1.3,0,2.3-0.3,3-0.8c0.7-0.5,1.1-1.2,1.1-2.2c0-0.7-0.2-1.2-0.6-1.7
			C540.4,505.7,539.6,505.2,538.3,504.8z"/>
		<path class="st8" d="M549.4,531.6c0,1.3-0.2,2.3-0.7,2.9c-0.5,0.6-1.3,0.9-2.3,0.9c-0.8,0-1.4-0.2-1.8-0.6c-0.4-0.4-0.6-1-0.6-1.9
			v-6.6h-1.6v6.7c0,1.3,0.3,2.2,0.9,2.8c0.6,0.6,1.5,0.9,2.8,0.9c0.7,0,1.4-0.1,1.9-0.4c0.6-0.3,1-0.6,1.3-1.1h0.1l0.2,1.4h1.3
			v-10.2h-1.5V531.6z"/>
		<path class="st8" d="M532.8,526.1l0,0.7l0.1,0.7h-0.1c-0.7-1-1.8-1.5-3.2-1.5c-1.3,0-2.4,0.5-3.1,1.4c-0.7,0.9-1.1,2.2-1.1,3.9
			c0,1.7,0.4,3,1.1,3.9c0.7,0.9,1.8,1.4,3.1,1.4c1.4,0,2.5-0.5,3.2-1.6h0.1l0.2,1.4h1.3V522h-1.5V526.1z M532.8,531.7
			c0,1.3-0.2,2.2-0.7,2.8c-0.5,0.6-1.2,0.9-2.3,0.9c-0.9,0-1.6-0.3-2.1-1c-0.5-0.7-0.7-1.6-0.7-2.9c0-1.3,0.2-2.3,0.7-3
			c0.5-0.7,1.2-1.1,2.1-1.1c1,0,1.8,0.3,2.3,0.9c0.5,0.6,0.7,1.6,0.7,3.1V531.7z"/>
		<path class="st8" d="M550.8,505.7c0,1.3-0.2,2.3-0.7,2.8c-0.5,0.6-1.3,0.9-2.3,0.9c-0.8,0-1.4-0.2-1.8-0.6c-0.4-0.4-0.6-1-0.6-1.9
			v-6.6h-1.6v6.7c0,1.3,0.3,2.2,0.9,2.8c0.6,0.6,1.5,0.9,2.8,0.9c0.7,0,1.4-0.1,1.9-0.4c0.6-0.3,1-0.7,1.3-1.2h0.1l0.2,1.4h1.3
			v-10.2h-1.5V505.7z"/>
		<rect x="554.2" y="522" class="st8" width="1.5" height="14.4"/>
		<path class="st8" d="M882.8,498.7c0.2,0,0.5-0.1,0.6-0.3c0.2-0.2,0.3-0.4,0.3-0.8c0-0.3-0.1-0.6-0.3-0.8c-0.2-0.2-0.4-0.2-0.6-0.2
			c-0.3,0-0.5,0.1-0.7,0.2c-0.2,0.2-0.3,0.4-0.3,0.8c0,0.4,0.1,0.6,0.3,0.8C882.3,498.6,882.5,498.7,882.8,498.7z"/>
		<path class="st8" d="M918.1,510.8c0.7,0,1.3-0.1,1.8-0.2c0.5-0.1,1-0.3,1.5-0.5v-1.4c-1.1,0.5-2.2,0.7-3.2,0.7
			c-1,0-1.8-0.3-2.4-0.9c-0.6-0.6-0.9-1.5-0.9-2.7h7v-1c0-1.4-0.4-2.5-1.1-3.3c-0.7-0.8-1.8-1.3-3-1.3c-1.4,0-2.4,0.5-3.3,1.4
			c-0.8,1-1.2,2.3-1.2,3.9c0,1.6,0.4,2.9,1.3,3.8C915.4,510.3,916.6,510.8,918.1,510.8z M915.7,502.3c0.5-0.5,1.1-0.8,1.9-0.8
			c0.8,0,1.4,0.3,1.9,0.8c0.4,0.5,0.7,1.3,0.7,2.2h-5.3C915,503.6,915.2,502.8,915.7,502.3z"/>
		<path class="st8" d="M684,533.5c0,2.1,1,3.1,2.9,3.1c0.3,0,0.6,0,0.9-0.1c0.3-0.1,0.6-0.1,0.7-0.2v-1.2c-0.1,0-0.3,0.1-0.6,0.1
			c-0.3,0-0.5,0.1-0.8,0.1c-0.5,0-0.9-0.2-1.2-0.5c-0.3-0.3-0.4-0.8-0.4-1.4v-6h2.9v-1.2h-2.9v-2.4h-0.9l-0.7,2.2l-1.5,0.6v0.7h1.5
			V533.5z"/>
		<path class="st8" d="M714.8,526.3v6.7c0,1.3,0.3,2.2,0.9,2.8c0.6,0.6,1.5,0.9,2.8,0.9c0.7,0,1.4-0.1,1.9-0.4
			c0.6-0.3,1-0.6,1.3-1.1h0.1l0.2,1.4h1.3v-10.2h-1.5v5.3c0,1.3-0.2,2.3-0.7,2.9c-0.5,0.6-1.3,0.9-2.3,0.9c-0.8,0-1.4-0.2-1.8-0.6
			c-0.4-0.4-0.6-1-0.6-1.9v-6.6H714.8z"/>
		<path class="st8" d="M596.1,527.5c0.3,0,0.7,0,1.1,0.1c0.4,0.1,0.8,0.2,1.1,0.3l0.5-1.3c-0.3-0.1-0.7-0.3-1.1-0.4
			c-0.5-0.1-1-0.2-1.5-0.2c-1.5,0-2.7,0.5-3.5,1.4c-0.8,0.9-1.2,2.2-1.2,3.9c0,1.7,0.4,2.9,1.2,3.8c0.8,0.9,1.9,1.4,3.4,1.4
			c1,0,1.9-0.2,2.6-0.5v-1.4c-0.9,0.4-1.8,0.5-2.6,0.5c-1,0-1.7-0.3-2.2-1c-0.5-0.7-0.8-1.6-0.8-2.9
			C593,528.8,594.1,527.5,596.1,527.5z"/>
		<rect x="731.4" y="522" class="st8" width="1.5" height="14.4"/>
		<path class="st8" d="M591.5,510.1c0.7,0.4,1.5,0.6,2.4,0.6c1.5,0,2.6-0.5,3.5-1.4c0.8-0.9,1.2-2.2,1.2-3.9c0-1.6-0.4-2.9-1.3-3.8
			c-0.8-0.9-2-1.4-3.4-1.4c-1.5,0-2.6,0.5-3.4,1.4c-0.8,0.9-1.2,2.2-1.2,3.9c0,1.1,0.2,2,0.6,2.8
			C590.2,509.1,590.8,509.7,591.5,510.1z M591.7,502.5c0.5-0.7,1.3-1,2.3-1c1,0,1.8,0.3,2.3,1c0.5,0.7,0.8,1.7,0.8,2.9
			c0,1.3-0.3,2.3-0.8,3c-0.5,0.7-1.3,1-2.3,1c-1,0-1.8-0.3-2.3-1c-0.5-0.7-0.8-1.7-0.8-3C590.9,504.2,591.1,503.2,591.7,502.5z"/>
		<path class="st8" d="M581.9,510.8c1.4,0,2.5-0.5,3.2-1.6h0.1l0.2,1.4h1.2v-14.4H585v4.1l0,0.7l0.1,0.7H585c-0.7-1-1.8-1.5-3.2-1.5
			c-1.3,0-2.4,0.5-3.1,1.4c-0.7,0.9-1.1,2.2-1.1,3.9c0,1.7,0.4,3,1.1,3.9C579.5,510.3,580.5,510.8,581.9,510.8z M580,502.6
			c0.5-0.7,1.2-1.1,2.1-1.1c1,0,1.8,0.3,2.3,0.9c0.5,0.6,0.7,1.6,0.7,3.1v0.3c0,1.3-0.2,2.2-0.7,2.8c-0.5,0.6-1.2,0.9-2.3,0.9
			c-0.9,0-1.6-0.3-2.1-1c-0.5-0.7-0.7-1.6-0.7-2.9C579.2,504.3,579.5,503.3,580,502.6z"/>
		<rect x="601.3" y="496.1" class="st8" width="1.5" height="14.4"/>
		<path class="st8" d="M733.1,505.2c0-1.3,0.2-2.3,0.7-2.9c0.5-0.6,1.3-0.9,2.3-0.9c0.8,0,1.4,0.2,1.8,0.6c0.4,0.4,0.6,1,0.6,1.9
			v6.6h1.5v-6.6c0-1.3-0.3-2.2-0.9-2.8c-0.6-0.6-1.5-0.9-2.8-0.9c-0.7,0-1.3,0.1-1.9,0.4c-0.6,0.3-1,0.7-1.3,1.2H733l-0.2-1.4h-1.2
			v10.2h1.5V505.2z"/>
		<path class="st8" d="M710.1,534.2L710.1,534.2l-7.5-11.3h-1.8v13.6h1.5v-7.7c0-1.1-0.1-2.3-0.2-3.7h0.1l7.4,11.4h1.8v-13.6h-1.5
			v7.8c0,0.4,0,1,0,1.9C710,533.5,710.1,534,710.1,534.2z"/>
		<path class="st8" d="M519.2,498.7c0.2,0,0.5-0.1,0.6-0.3c0.2-0.2,0.3-0.4,0.3-0.8c0-0.3-0.1-0.6-0.3-0.8c-0.2-0.2-0.4-0.2-0.6-0.2
			c-0.3,0-0.5,0.1-0.6,0.2c-0.2,0.2-0.3,0.4-0.3,0.8c0,0.4,0.1,0.6,0.3,0.8C518.7,498.6,518.9,498.7,519.2,498.7z"/>
		<path class="st8" d="M688.4,510.8c0.7,0,1.3-0.1,1.8-0.2c0.5-0.1,1-0.3,1.5-0.5v-1.4c-1.1,0.5-2.2,0.7-3.2,0.7
			c-1,0-1.8-0.3-2.4-0.9c-0.6-0.6-0.9-1.5-0.9-2.7h7v-1c0-1.4-0.4-2.5-1.1-3.3c-0.7-0.8-1.8-1.3-3-1.3c-1.4,0-2.4,0.5-3.3,1.4
			c-0.8,1-1.2,2.3-1.2,3.9c0,1.6,0.4,2.9,1.3,3.8C685.7,510.3,686.9,510.8,688.4,510.8z M686,502.3c0.5-0.5,1.1-0.8,2-0.8
			c0.8,0,1.4,0.3,1.9,0.8c0.4,0.5,0.6,1.3,0.6,2.2h-5.3C685.2,503.6,685.5,502.8,686,502.3z"/>
		<path class="st8" d="M658.3,510.8c0.8,0,1.4-0.1,1.9-0.3c0.5-0.2,1-0.7,1.5-1.3h0.1l0.3,1.4h1.1v-6.9c0-1.2-0.3-2-0.9-2.6
			c-0.6-0.5-1.5-0.8-2.7-0.8c-0.6,0-1.2,0.1-1.8,0.2c-0.6,0.2-1.1,0.4-1.6,0.6l0.5,1.2c1.1-0.5,2-0.8,2.9-0.8c0.8,0,1.3,0.2,1.6,0.6
			c0.3,0.4,0.5,1,0.5,1.8v0.6l-1.7,0.1c-3.3,0.1-4.9,1.2-4.9,3.2c0,1,0.3,1.7,0.9,2.2C656.5,510.5,657.3,510.8,658.3,510.8z
			 M657.5,506.2c0.5-0.3,1.4-0.5,2.6-0.6l1.5-0.1v0.9c0,0.9-0.3,1.7-0.8,2.2c-0.5,0.5-1.3,0.8-2.3,0.8c-0.6,0-1.1-0.1-1.4-0.4
			c-0.3-0.3-0.5-0.7-0.5-1.3C656.7,507.1,656.9,506.5,657.5,506.2z"/>
		<path class="st8" d="M690.7,534.5c-0.2,0.2-0.3,0.5-0.3,0.9c0,0.4,0.1,0.8,0.3,1c0.2,0.2,0.5,0.3,0.8,0.3c0.4,0,0.6-0.1,0.8-0.3
			c0.2-0.2,0.3-0.5,0.3-0.9c0-0.4-0.1-0.7-0.3-0.9c-0.2-0.2-0.5-0.3-0.8-0.3C691.1,534.2,690.8,534.3,690.7,534.5z"/>
		<path class="st8" d="M702.5,510.7c0.3-0.8,0.5-1.5,0.7-2.2l-0.1-0.2h-1.7c-0.1,0.6-0.2,1.3-0.4,2.3c-0.2,0.9-0.4,1.7-0.6,2.4h1.2
			C701.9,512.3,702.2,511.6,702.5,510.7z"/>
		<path class="st8" d="M715.1,510.8c1,0,1.9-0.2,2.6-0.5v-1.4c-0.9,0.4-1.8,0.5-2.6,0.5c-1,0-1.7-0.3-2.2-1
			c-0.5-0.7-0.8-1.6-0.8-2.9c0-2.6,1-4,3.1-4c0.3,0,0.7,0,1.1,0.1c0.4,0.1,0.8,0.2,1.1,0.3l0.5-1.3c-0.3-0.1-0.7-0.3-1.2-0.4
			c-0.5-0.1-1-0.2-1.5-0.2c-1.5,0-2.7,0.5-3.5,1.4c-0.8,0.9-1.2,2.2-1.2,3.9c0,1.7,0.4,2.9,1.2,3.8
			C712.5,510.3,713.6,510.8,715.1,510.8z"/>
		<path class="st8" d="M488.2,522.5c-0.3,0-0.5,0.1-0.6,0.2c-0.2,0.2-0.3,0.4-0.3,0.8c0,0.4,0.1,0.6,0.3,0.8
			c0.2,0.2,0.4,0.3,0.6,0.3c0.2,0,0.5-0.1,0.6-0.3c0.2-0.2,0.3-0.4,0.3-0.8c0-0.3-0.1-0.6-0.3-0.8
			C488.6,522.6,488.4,522.5,488.2,522.5z"/>
		<path class="st8" d="M667.9,505.2c0-1.3,0.2-2.3,0.7-2.8c0.4-0.6,1.2-0.9,2.1-0.9c0.7,0,1.3,0.2,1.6,0.6c0.3,0.4,0.5,1,0.5,1.8
			v6.6h1.5v-5.7c0-1.1,0.2-2,0.7-2.5c0.5-0.6,1.2-0.8,2.1-0.8c0.7,0,1.3,0.2,1.6,0.6c0.3,0.4,0.5,1,0.5,1.8v6.6h1.5v-6.6
			c0-1.3-0.3-2.2-0.9-2.8c-0.6-0.6-1.4-0.9-2.6-0.9c-0.7,0-1.4,0.2-2,0.5c-0.6,0.3-1,0.7-1.3,1.3h-0.1c-0.5-1.2-1.5-1.7-3.1-1.7
			c-0.7,0-1.2,0.1-1.8,0.4c-0.5,0.3-0.9,0.7-1.2,1.2h-0.1l-0.3-1.4h-1.3v10.2h1.5V505.2z"/>
		<path class="st8" d="M800,527.5c-0.7,0.9-1.1,2.2-1.1,3.9c0,1.7,0.4,3,1.1,3.9c0.7,0.9,1.8,1.4,3.1,1.4c1.4,0,2.5-0.5,3.2-1.6h0.1
			l0.2,1.4h1.2V522h-1.5v4.1l0,0.7l0.1,0.7h-0.1c-0.7-1-1.8-1.5-3.2-1.5C801.8,526.1,800.8,526.6,800,527.5z M805.6,528.3
			c0.5,0.6,0.7,1.6,0.7,3.1v0.3c0,1.3-0.2,2.2-0.7,2.8c-0.5,0.6-1.2,0.9-2.3,0.9c-0.9,0-1.6-0.3-2.1-1c-0.5-0.7-0.7-1.6-0.7-2.9
			c0-1.3,0.2-2.3,0.7-3c0.5-0.7,1.2-1.1,2.1-1.1C804.4,527.4,805.1,527.7,805.6,528.3z"/>
		<path class="st8" d="M799.6,510.8c0.7,0,1.4-0.1,1.9-0.4c0.6-0.3,1-0.7,1.3-1.2h0.1l0.2,1.4h1.3v-10.2h-1.5v5.3
			c0,1.3-0.2,2.3-0.7,2.8c-0.5,0.6-1.3,0.9-2.3,0.9c-0.8,0-1.4-0.2-1.8-0.6c-0.4-0.4-0.6-1-0.6-1.9v-6.6h-1.6v6.7
			c0,1.3,0.3,2.2,0.9,2.8C797.5,510.5,798.4,510.8,799.6,510.8z"/>
		<path class="st8" d="M474.8,531.6c0,1.3-0.2,2.3-0.7,2.9c-0.5,0.6-1.3,0.9-2.3,0.9c-0.8,0-1.4-0.2-1.8-0.6c-0.4-0.4-0.6-1-0.6-1.9
			v-6.6h-1.6v6.7c0,1.3,0.3,2.2,0.9,2.8c0.6,0.6,1.5,0.9,2.8,0.9c0.7,0,1.4-0.1,1.9-0.4c0.6-0.3,1-0.6,1.3-1.1h0.1l0.2,1.4h1.3
			v-10.2h-1.5V531.6z"/>
		<path class="st8" d="M743.7,505c0.4,0.3,1.1,0.6,2,0.9c1,0.4,1.7,0.7,2,1c0.3,0.3,0.5,0.6,0.5,1c0,0.5-0.2,0.9-0.7,1.2
			c-0.4,0.3-1,0.4-1.9,0.4c-0.5,0-1.1-0.1-1.6-0.2c-0.6-0.1-1.1-0.3-1.6-0.6v1.4c0.8,0.4,1.8,0.6,3.2,0.6c1.3,0,2.3-0.3,3-0.8
			c0.7-0.5,1.1-1.2,1.1-2.2c0-0.7-0.2-1.2-0.6-1.7c-0.4-0.4-1.2-0.9-2.4-1.3c-0.9-0.3-1.5-0.6-1.8-0.8c-0.3-0.2-0.5-0.4-0.7-0.5
			c-0.1-0.2-0.2-0.4-0.2-0.7c0-0.4,0.2-0.7,0.6-0.9c0.4-0.2,0.9-0.3,1.7-0.3c0.8,0,1.7,0.2,2.8,0.6l0.5-1.3c-1-0.4-2.1-0.7-3.2-0.7
			c-1.2,0-2.1,0.2-2.8,0.7c-0.7,0.5-1,1.1-1,2c0,0.5,0.1,0.9,0.3,1.2C743,504.4,743.3,504.7,743.7,505z"/>
		<path class="st8" d="M482.3,501.6c0.3,0,0.7,0,1.1,0.1l0.2-1.4c-0.4-0.1-0.8-0.1-1.2-0.1c-0.6,0-1.2,0.2-1.8,0.5
			c-0.5,0.4-1,0.9-1.4,1.5h-0.1l-0.2-1.9h-1.3v10.2h1.5v-5.5c0-1,0.3-1.8,0.9-2.5C480.8,501.9,481.5,501.6,482.3,501.6z"/>
		<rect x="487.4" y="526.3" class="st8" width="1.5" height="10.2"/>
		<path class="st8" d="M482.5,526.6c-0.5,0.4-1,0.9-1.4,1.5h-0.1l-0.2-1.9h-1.3v10.2h1.5V531c0-1,0.3-1.8,0.9-2.5
			c0.6-0.7,1.3-1,2.1-1c0.3,0,0.7,0,1.1,0.1l0.2-1.4c-0.4-0.1-0.8-0.1-1.2-0.1C483.6,526.1,483,526.3,482.5,526.6z"/>
		<path class="st8" d="M470.4,510.8c1.5,0,2.6-0.5,3.5-1.4c0.8-0.9,1.2-2.2,1.2-3.9c0-1.6-0.4-2.9-1.3-3.8c-0.8-0.9-2-1.4-3.4-1.4
			c-1.5,0-2.6,0.5-3.4,1.4c-0.8,0.9-1.2,2.2-1.2,3.9c0,1.1,0.2,2,0.6,2.8c0.4,0.8,0.9,1.4,1.6,1.8
			C468.6,510.5,469.5,510.8,470.4,510.8z M468.1,502.5c0.5-0.7,1.3-1,2.3-1c1,0,1.8,0.3,2.3,1c0.5,0.7,0.8,1.7,0.8,2.9
			c0,1.3-0.3,2.3-0.8,3c-0.5,0.7-1.3,1-2.3,1c-1,0-1.8-0.3-2.3-1c-0.5-0.7-0.8-1.7-0.8-3C467.3,504.2,467.6,503.2,468.1,502.5z"/>
		<polygon class="st8" points="464.2,509.1 458.2,509.1 458.2,497 456.7,497 456.7,510.6 464.2,510.6 		"/>
		<path class="st8" d="M783,510.8c0.7,0,1.3-0.1,1.8-0.2c0.5-0.1,1-0.3,1.5-0.5v-1.4c-1.1,0.5-2.2,0.7-3.2,0.7c-1,0-1.8-0.3-2.4-0.9
			c-0.6-0.6-0.9-1.5-0.9-2.7h7v-1c0-1.4-0.4-2.5-1.1-3.3c-0.7-0.8-1.8-1.3-3-1.3c-1.4,0-2.4,0.5-3.3,1.4c-0.8,1-1.2,2.3-1.2,3.9
			c0,1.6,0.4,2.9,1.3,3.8C780.3,510.3,781.5,510.8,783,510.8z M780.6,502.3c0.5-0.5,1.1-0.8,2-0.8c0.8,0,1.4,0.3,1.9,0.8
			c0.4,0.5,0.6,1.3,0.6,2.2h-5.3C779.8,503.6,780.1,502.8,780.6,502.3z"/>
		<rect x="518.4" y="500.4" class="st8" width="1.5" height="10.2"/>
		<path class="st8" d="M461.2,526.1c-0.6,0-1.2,0.1-1.8,0.2c-0.6,0.2-1.1,0.4-1.6,0.6l0.5,1.2c1.1-0.5,2-0.8,2.9-0.8
			c0.8,0,1.3,0.2,1.6,0.6c0.3,0.4,0.5,1,0.5,1.8v0.6l-1.7,0.1c-3.3,0.1-4.9,1.2-4.9,3.2c0,1,0.3,1.7,0.9,2.2
			c0.6,0.5,1.4,0.8,2.4,0.8c0.8,0,1.4-0.1,1.9-0.3c0.5-0.2,1-0.7,1.5-1.3h0.1l0.3,1.4h1.1v-6.9c0-1.2-0.3-2.1-0.9-2.6
			C463.3,526.4,462.4,526.1,461.2,526.1z M463.3,532.4c0,0.9-0.3,1.7-0.8,2.2c-0.5,0.5-1.3,0.8-2.3,0.8c-0.6,0-1.1-0.1-1.4-0.4
			c-0.3-0.3-0.5-0.7-0.5-1.3c0-0.7,0.3-1.2,0.8-1.6c0.5-0.3,1.4-0.5,2.6-0.6l1.5-0.1V532.4z"/>
		<path class="st8" d="M447.2,534.1L447.2,534.1l-4.4-11.2h-2.4v13.6h1.5v-8.6c0-1.3,0-2.4-0.1-3.4h0.1l4.6,12h1.3l4.6-12h0.1
			c-0.1,1.2-0.1,2.3-0.1,3.3v8.7h1.6v-13.6h-2.4L447.2,534.1z"/>
		<path class="st8" d="M789.5,507.6c0,2.1,1,3.1,3,3.1c0.3,0,0.6,0,0.9-0.1c0.3-0.1,0.6-0.1,0.7-0.2v-1.2c-0.2,0-0.3,0.1-0.6,0.1
			c-0.3,0-0.5,0.1-0.8,0.1c-0.5,0-0.9-0.2-1.2-0.5c-0.3-0.3-0.4-0.8-0.4-1.4v-6h3v-1.2h-3V498h-0.9l-0.7,2.2l-1.5,0.6v0.7h1.5V507.6
			z"/>
		<path class="st8" d="M728.8,505.5c0-1.6-0.4-2.9-1.3-3.8c-0.8-0.9-2-1.4-3.4-1.4c-1.5,0-2.6,0.5-3.4,1.4c-0.8,0.9-1.2,2.2-1.2,3.9
			c0,1.1,0.2,2,0.6,2.8c0.4,0.8,0.9,1.4,1.6,1.8c0.7,0.4,1.5,0.6,2.4,0.6c1.5,0,2.6-0.5,3.5-1.4
			C728.4,508.4,728.8,507.1,728.8,505.5z M726.5,508.4c-0.5,0.7-1.3,1-2.3,1c-1,0-1.8-0.3-2.3-1c-0.5-0.7-0.8-1.7-0.8-3
			c0-1.3,0.3-2.3,0.8-3c0.5-0.7,1.3-1,2.3-1c1,0,1.8,0.3,2.3,1c0.5,0.7,0.8,1.7,0.8,2.9C727.2,506.8,727,507.8,726.5,508.4z"/>
		<rect x="811.1" y="526.3" class="st8" width="1.5" height="10.2"/>
		<path class="st8" d="M824.2,500.2c-0.6,0-1.2,0.1-1.8,0.2c-0.6,0.2-1.1,0.4-1.6,0.6l0.5,1.2c1.1-0.5,2-0.8,2.9-0.8
			c0.8,0,1.3,0.2,1.6,0.6c0.3,0.4,0.5,1,0.5,1.8v0.6l-1.7,0.1c-3.3,0.1-4.9,1.2-4.9,3.2c0,1,0.3,1.7,0.9,2.2
			c0.6,0.5,1.4,0.8,2.4,0.8c0.8,0,1.4-0.1,1.9-0.3c0.5-0.2,1-0.7,1.5-1.3h0.1l0.3,1.4h1.1v-6.9c0-1.2-0.3-2-0.9-2.6
			C826.3,500.5,825.4,500.2,824.2,500.2z M826.3,506.5c0,0.9-0.3,1.7-0.8,2.2c-0.5,0.5-1.3,0.8-2.3,0.8c-0.6,0-1.1-0.1-1.4-0.4
			c-0.3-0.3-0.5-0.7-0.5-1.3c0-0.7,0.3-1.2,0.8-1.6c0.5-0.3,1.4-0.5,2.6-0.6l1.5-0.1V506.5z"/>
		<path class="st8" d="M870.4,507.8c0-0.7-0.2-1.2-0.6-1.7c-0.4-0.4-1.2-0.9-2.4-1.3c-0.9-0.3-1.5-0.6-1.8-0.8
			c-0.3-0.2-0.5-0.4-0.7-0.5c-0.1-0.2-0.2-0.4-0.2-0.7c0-0.4,0.2-0.7,0.6-0.9c0.4-0.2,0.9-0.3,1.7-0.3c0.8,0,1.8,0.2,2.8,0.6
			l0.5-1.3c-1-0.4-2.1-0.7-3.2-0.7c-1.2,0-2.1,0.2-2.8,0.7c-0.7,0.5-1,1.1-1,2c0,0.5,0.1,0.9,0.3,1.2c0.2,0.3,0.5,0.6,0.9,0.9
			c0.4,0.3,1.1,0.6,2,0.9c1,0.4,1.7,0.7,2,1c0.3,0.3,0.5,0.6,0.5,1c0,0.5-0.2,0.9-0.6,1.2c-0.4,0.3-1.1,0.4-1.9,0.4
			c-0.5,0-1.1-0.1-1.6-0.2c-0.6-0.1-1.1-0.3-1.6-0.6v1.4c0.8,0.4,1.8,0.6,3.2,0.6c1.3,0,2.3-0.3,3-0.8
			C870.1,509.5,870.4,508.7,870.4,507.8z"/>
		<path class="st8" d="M812.6,560.1c-0.4,0-0.6,0.1-0.8,0.3c-0.2,0.2-0.3,0.5-0.3,0.9c0,0.4,0.1,0.8,0.3,1c0.2,0.2,0.5,0.3,0.8,0.3
			c0.4,0,0.6-0.1,0.8-0.3c0.2-0.2,0.3-0.5,0.3-0.9c0-0.4-0.1-0.7-0.3-0.9C813.2,560.2,812.9,560.1,812.6,560.1z"/>
		<path class="st8" d="M820.1,526.1c-1.5,0-2.6,0.5-3.4,1.4c-0.8,0.9-1.2,2.2-1.2,3.9c0,1.1,0.2,2,0.6,2.8c0.4,0.8,0.9,1.4,1.6,1.8
			c0.7,0.4,1.5,0.6,2.4,0.6c1.5,0,2.6-0.5,3.5-1.4c0.8-0.9,1.2-2.2,1.2-3.9c0-1.6-0.4-2.9-1.3-3.8
			C822.6,526.6,821.5,526.1,820.1,526.1z M822.3,534.3c-0.5,0.7-1.3,1-2.3,1c-1,0-1.8-0.3-2.3-1c-0.5-0.7-0.8-1.7-0.8-3
			c0-1.3,0.3-2.3,0.8-3c0.5-0.7,1.3-1,2.3-1c1,0,1.8,0.3,2.3,1c0.5,0.7,0.8,1.7,0.8,2.9C823.1,532.7,822.8,533.6,822.3,534.3z"/>
		<path class="st8" d="M855.3,509.4c0.7-0.9,1.1-2.2,1.1-3.9c0-1.7-0.4-3-1.1-3.9c-0.7-0.9-1.8-1.4-3.1-1.4c-0.7,0-1.3,0.1-1.8,0.4
			c-0.5,0.2-1,0.7-1.4,1.2h-0.1l-0.2-1.4h-1.3v14.7h1.5v-4.2c0-0.5,0-1.1-0.1-1.7h0.1c0.4,0.5,0.8,0.9,1.4,1.1
			c0.5,0.2,1.2,0.4,1.8,0.4C853.5,510.8,854.5,510.3,855.3,509.4z M849.7,508.5c-0.5-0.6-0.7-1.6-0.7-3.1v-0.3
			c0-1.3,0.2-2.2,0.7-2.8c0.5-0.6,1.2-0.9,2.3-0.9c0.9,0,1.6,0.3,2.1,1c0.5,0.7,0.7,1.7,0.7,2.9c0,1.2-0.3,2.2-0.7,2.9
			c-0.5,0.7-1.2,1.1-2.1,1.1C850.9,509.5,850.2,509.2,849.7,508.5z"/>
		<path class="st8" d="M863.1,526.1c-0.7,0-1.4,0.2-2,0.5c-0.6,0.3-1,0.7-1.3,1.3h-0.1c-0.5-1.2-1.5-1.7-3.1-1.7
			c-0.7,0-1.2,0.1-1.8,0.4c-0.5,0.3-0.9,0.7-1.2,1.2h-0.1l-0.3-1.4h-1.2v10.2h1.5v-5.3c0-1.3,0.2-2.3,0.7-2.8
			c0.5-0.6,1.2-0.9,2.1-0.9c0.7,0,1.3,0.2,1.6,0.6c0.3,0.4,0.5,1,0.5,1.8v6.6h1.5v-5.7c0-1.1,0.2-2,0.7-2.5c0.5-0.6,1.2-0.8,2.1-0.8
			c0.7,0,1.3,0.2,1.6,0.6c0.3,0.4,0.5,1,0.5,1.8v6.6h1.5v-6.6c0-1.3-0.3-2.2-0.9-2.8C865.1,526.4,864.3,526.1,863.1,526.1z"/>
		<path class="st8" d="M845.3,526.1c-1.4,0-2.4,0.5-3.3,1.4c-0.8,1-1.2,2.3-1.2,3.9c0,1.6,0.4,2.9,1.3,3.8c0.9,0.9,2.1,1.4,3.6,1.4
			c0.7,0,1.3,0,1.8-0.2c0.5-0.1,1-0.3,1.5-0.5v-1.4c-1.1,0.5-2.2,0.7-3.2,0.7c-1,0-1.8-0.3-2.4-0.9c-0.6-0.6-0.9-1.5-0.9-2.7h7v-1
			c0-1.4-0.4-2.5-1.1-3.3C847.6,526.5,846.6,526.1,845.3,526.1z M842.5,530.4c0.1-0.9,0.4-1.7,0.9-2.2c0.5-0.5,1.1-0.8,2-0.8
			c0.8,0,1.4,0.3,1.9,0.8c0.4,0.5,0.6,1.3,0.6,2.2H842.5z"/>
		<path class="st8" d="M605.2,526.1c-1.5,0-2.6,0.5-3.4,1.4c-0.8,0.9-1.2,2.2-1.2,3.9c0,1.1,0.2,2,0.6,2.8c0.4,0.8,0.9,1.4,1.6,1.8
			c0.7,0.4,1.5,0.6,2.4,0.6c1.5,0,2.6-0.5,3.5-1.4c0.8-0.9,1.3-2.2,1.3-3.9c0-1.6-0.4-2.9-1.3-3.8
			C607.7,526.6,606.6,526.1,605.2,526.1z M607.5,534.3c-0.5,0.7-1.3,1-2.3,1c-1,0-1.8-0.3-2.3-1c-0.5-0.7-0.8-1.7-0.8-3
			c0-1.3,0.3-2.3,0.8-3c0.5-0.7,1.3-1,2.3-1c1,0,1.8,0.3,2.3,1c0.5,0.7,0.8,1.7,0.8,2.9C608.2,532.7,608,533.6,607.5,534.3z"/>
		<path class="st8" d="M835.8,530.7c-0.9-0.3-1.5-0.6-1.8-0.7c-0.3-0.2-0.5-0.4-0.7-0.5c-0.1-0.2-0.2-0.4-0.2-0.7
			c0-0.4,0.2-0.7,0.6-0.9c0.4-0.2,0.9-0.3,1.7-0.3c0.8,0,1.7,0.2,2.8,0.6l0.5-1.3c-1-0.4-2.1-0.7-3.2-0.7c-1.2,0-2.1,0.2-2.8,0.7
			c-0.7,0.5-1,1.1-1,2c0,0.5,0.1,0.9,0.3,1.2c0.2,0.3,0.5,0.6,0.9,0.9c0.4,0.3,1.1,0.6,2,0.9c1,0.4,1.7,0.7,2,1
			c0.3,0.3,0.5,0.6,0.5,1c0,0.5-0.2,0.9-0.7,1.2c-0.4,0.3-1,0.4-1.9,0.4c-0.5,0-1.1-0.1-1.6-0.2c-0.6-0.1-1.1-0.3-1.6-0.6v1.4
			c0.8,0.4,1.8,0.6,3.2,0.6c1.3,0,2.3-0.3,3-0.8c0.7-0.5,1.1-1.2,1.1-2.2c0-0.7-0.2-1.2-0.6-1.7C837.8,531.5,837,531.1,835.8,530.7z
			"/>
		<path class="st8" d="M787.3,552c-0.6,0-1.2,0.1-1.8,0.2c-0.6,0.2-1.1,0.4-1.6,0.6l0.5,1.2c1.1-0.5,2-0.8,2.9-0.8
			c0.8,0,1.3,0.2,1.6,0.6c0.3,0.4,0.5,1,0.5,1.8v0.6l-1.7,0.1c-3.3,0.1-4.9,1.2-4.9,3.2c0,1,0.3,1.7,0.9,2.2
			c0.6,0.5,1.4,0.8,2.4,0.8c0.8,0,1.4-0.1,1.9-0.3c0.5-0.2,1-0.7,1.5-1.3h0.1l0.3,1.4h1.1v-6.9c0-1.2-0.3-2.1-0.9-2.6
			C789.4,552.3,788.5,552,787.3,552z M789.3,558.2c0,0.9-0.3,1.7-0.8,2.2c-0.5,0.5-1.3,0.8-2.3,0.8c-0.6,0-1.1-0.1-1.4-0.4
			c-0.3-0.3-0.5-0.7-0.5-1.3c0-0.7,0.3-1.2,0.8-1.6c0.5-0.3,1.4-0.5,2.6-0.6l1.5-0.1V558.2z"/>
		<path class="st8" d="M778.6,557.5c0,1.3-0.2,2.3-0.7,2.9c-0.5,0.6-1.3,0.9-2.3,0.9c-0.8,0-1.4-0.2-1.8-0.6c-0.4-0.4-0.6-1-0.6-1.9
			v-6.6h-1.6v6.7c0,1.3,0.3,2.2,0.9,2.8c0.6,0.6,1.5,0.9,2.8,0.9c0.7,0,1.4-0.1,1.9-0.4c0.6-0.3,1-0.6,1.3-1.1h0.1l0.2,1.4h1.3
			v-10.2h-1.5V557.5z"/>
		<path class="st8" d="M775.1,536.6c1.4,0,2.5-0.5,3.2-1.6h0.1l0.2,1.4h1.3V522h-1.5v4.1l0,0.7l0.1,0.7h-0.1c-0.7-1-1.8-1.5-3.2-1.5
			c-1.3,0-2.4,0.5-3.1,1.4c-0.7,0.9-1.1,2.2-1.1,3.9c0,1.7,0.4,3,1.1,3.9C772.7,536.2,773.7,536.6,775.1,536.6z M773.2,528.4
			c0.5-0.7,1.2-1.1,2.1-1.1c1,0,1.8,0.3,2.3,0.9c0.5,0.6,0.7,1.6,0.7,3.1v0.3c0,1.3-0.2,2.2-0.7,2.8c-0.5,0.6-1.2,0.9-2.3,0.9
			c-0.9,0-1.6-0.3-2.1-1c-0.5-0.7-0.7-1.6-0.7-2.9C772.4,530.1,772.7,529.1,773.2,528.4z"/>
		<path class="st8" d="M772.1,507.6c0,2.1,1,3.1,2.9,3.1c0.3,0,0.6,0,0.9-0.1c0.3-0.1,0.6-0.1,0.7-0.2v-1.2c-0.2,0-0.4,0.1-0.6,0.1
			c-0.3,0-0.5,0.1-0.8,0.1c-0.5,0-0.9-0.2-1.2-0.5c-0.3-0.3-0.4-0.8-0.4-1.4v-6h3v-1.2h-3V498h-0.9l-0.7,2.2l-1.5,0.6v0.7h1.5V507.6
			z"/>
		<path class="st8" d="M813.4,501.8l0.2-1.4c-0.4-0.1-0.8-0.1-1.2-0.1c-0.6,0-1.2,0.2-1.8,0.5c-0.5,0.4-1,0.9-1.4,1.5h-0.1l-0.2-1.9
			h-1.3v10.2h1.5v-5.5c0-1,0.3-1.8,0.9-2.5c0.6-0.7,1.3-1,2.1-1C812.6,501.6,812.9,501.7,813.4,501.8z"/>
		<path class="st8" d="M796.8,531.4c0-1.6-0.4-2.9-1.3-3.8c-0.8-0.9-2-1.4-3.4-1.4c-1.5,0-2.6,0.5-3.5,1.4c-0.8,0.9-1.2,2.2-1.2,3.9
			c0,1.1,0.2,2,0.6,2.8c0.4,0.8,0.9,1.4,1.6,1.8c0.7,0.4,1.5,0.6,2.4,0.6c1.5,0,2.6-0.5,3.5-1.4C796.4,534.3,796.8,533,796.8,531.4z
			 M794.4,534.3c-0.5,0.7-1.3,1-2.3,1c-1,0-1.8-0.3-2.3-1c-0.5-0.7-0.8-1.7-0.8-3c0-1.3,0.3-2.3,0.8-3c0.5-0.7,1.3-1,2.3-1
			c1,0,1.8,0.3,2.3,1c0.5,0.7,0.8,1.7,0.8,2.9C795.2,532.7,794.9,533.6,794.4,534.3z"/>
		<path class="st8" d="M811.9,524.5c0.2,0,0.5-0.1,0.6-0.3c0.2-0.2,0.3-0.4,0.3-0.8c0-0.3-0.1-0.6-0.3-0.8c-0.2-0.2-0.4-0.2-0.6-0.2
			c-0.3,0-0.5,0.1-0.6,0.2c-0.2,0.2-0.3,0.4-0.3,0.8c0,0.4,0.1,0.6,0.3,0.8C811.4,524.5,811.6,524.5,811.9,524.5z"/>
		<path class="st8" d="M805.1,552c-0.7,0-1.4,0.2-2,0.5c-0.6,0.3-1,0.7-1.3,1.3h-0.1c-0.5-1.2-1.5-1.7-3.1-1.7
			c-0.7,0-1.2,0.1-1.8,0.4c-0.5,0.3-0.9,0.7-1.2,1.2h-0.1l-0.2-1.4H794v10.2h1.5V557c0-1.3,0.2-2.3,0.7-2.8c0.4-0.6,1.2-0.9,2.1-0.9
			c0.7,0,1.3,0.2,1.6,0.6c0.3,0.4,0.5,1,0.5,1.8v6.6h1.5v-5.7c0-1.1,0.2-2,0.7-2.5c0.5-0.5,1.2-0.8,2.1-0.8c0.7,0,1.3,0.2,1.6,0.6
			c0.3,0.4,0.5,1,0.5,1.8v6.6h1.5v-6.6c0-1.3-0.3-2.2-0.9-2.8C807.1,552.3,806.2,552,805.1,552z"/>
		<path class="st8" d="M938.7,509.3c-0.2,0-0.3,0.1-0.6,0.1c-0.3,0-0.5,0.1-0.8,0.1c-0.5,0-0.9-0.2-1.2-0.5
			c-0.3-0.3-0.4-0.8-0.4-1.4v-6h3v-1.2h-3V498h-0.9l-0.7,2.2l-1.5,0.6v0.7h1.5v6c0,2.1,1,3.1,3,3.1c0.3,0,0.6,0,0.9-0.1
			c0.3-0.1,0.6-0.1,0.7-0.2V509.3z"/>
		<rect x="938.5" y="522" class="st8" width="1.5" height="14.4"/>
		<path class="st8" d="M941.7,508.3c-0.4,0-0.6,0.1-0.8,0.3c-0.2,0.2-0.3,0.5-0.3,0.9c0,0.4,0.1,0.8,0.3,1c0.2,0.2,0.5,0.3,0.8,0.3
			c0.3,0,0.6-0.1,0.8-0.3c0.2-0.2,0.3-0.5,0.3-0.9c0-0.4-0.1-0.7-0.3-0.9C942.3,508.4,942,508.3,941.7,508.3z"/>
		<rect x="943.4" y="522" class="st8" width="1.5" height="14.4"/>
		<path class="st8" d="M767.1,501.6c0.3,0,0.7,0,1.1,0.1c0.4,0.1,0.8,0.2,1.1,0.3l0.5-1.3c-0.3-0.1-0.7-0.3-1.1-0.4
			c-0.5-0.1-1-0.2-1.5-0.2c-1.5,0-2.7,0.5-3.5,1.4c-0.8,0.9-1.2,2.2-1.2,3.9c0,1.7,0.4,2.9,1.2,3.8c0.8,0.9,1.9,1.4,3.4,1.4
			c1,0,1.9-0.2,2.6-0.5v-1.4c-0.9,0.4-1.8,0.5-2.6,0.5c-1,0-1.7-0.3-2.2-1c-0.5-0.7-0.8-1.6-0.8-2.9
			C764,502.9,765,501.6,767.1,501.6z"/>
		<path class="st8" d="M931.2,526.1c-1.5,0-2.6,0.5-3.5,1.4c-0.8,0.9-1.2,2.2-1.2,3.9c0,1.1,0.2,2,0.6,2.8c0.4,0.8,0.9,1.4,1.6,1.8
			c0.7,0.4,1.5,0.6,2.4,0.6c1.5,0,2.6-0.5,3.5-1.4c0.8-0.9,1.2-2.2,1.2-3.9c0-1.6-0.4-2.9-1.3-3.8
			C933.7,526.6,932.6,526.1,931.2,526.1z M933.5,534.3c-0.5,0.7-1.3,1-2.3,1c-1,0-1.8-0.3-2.3-1c-0.5-0.7-0.8-1.7-0.8-3
			c0-1.3,0.3-2.3,0.8-3c0.5-0.7,1.3-1,2.3-1c1,0,1.8,0.3,2.3,1c0.5,0.7,0.8,1.7,0.8,2.9C934.2,532.7,934,533.6,933.5,534.3z"/>
		<rect x="948.2" y="526.3" class="st8" width="1.5" height="10.2"/>
		<path class="st8" d="M956.4,530.7c-0.9-0.3-1.5-0.6-1.8-0.7c-0.3-0.2-0.5-0.4-0.7-0.5c-0.1-0.2-0.2-0.4-0.2-0.7
			c0-0.4,0.2-0.7,0.6-0.9c0.4-0.2,0.9-0.3,1.7-0.3c0.8,0,1.8,0.2,2.8,0.6l0.5-1.3c-1-0.4-2.1-0.7-3.2-0.7c-1.2,0-2.1,0.2-2.8,0.7
			c-0.7,0.5-1,1.1-1,2c0,0.5,0.1,0.9,0.3,1.2c0.2,0.3,0.5,0.6,0.9,0.9c0.4,0.3,1.1,0.6,2,0.9c1,0.4,1.7,0.7,2,1
			c0.3,0.3,0.5,0.6,0.5,1c0,0.5-0.2,0.9-0.7,1.2c-0.4,0.3-1,0.4-1.9,0.4c-0.5,0-1.1-0.1-1.6-0.2c-0.6-0.1-1.1-0.3-1.6-0.6v1.4
			c0.8,0.4,1.8,0.6,3.2,0.6c1.3,0,2.3-0.3,3-0.8s1.1-1.2,1.1-2.2c0-0.7-0.2-1.2-0.6-1.7C958.5,531.5,957.6,531.1,956.4,530.7z"/>
		<path class="st8" d="M948.9,522.5c-0.3,0-0.5,0.1-0.6,0.2c-0.2,0.2-0.3,0.4-0.3,0.8c0,0.4,0.1,0.6,0.3,0.8
			c0.2,0.2,0.4,0.3,0.6,0.3c0.2,0,0.5-0.1,0.6-0.3c0.2-0.2,0.3-0.4,0.3-0.8c0-0.3-0.1-0.6-0.3-0.8
			C949.4,522.6,949.2,522.5,948.9,522.5z"/>
		<path class="st8" d="M877.1,501.6c0.3,0,0.7,0,1.1,0.1c0.4,0.1,0.8,0.2,1.1,0.3l0.5-1.3c-0.3-0.1-0.7-0.3-1.2-0.4
			c-0.5-0.1-1-0.2-1.5-0.2c-1.5,0-2.7,0.5-3.5,1.4c-0.8,0.9-1.2,2.2-1.2,3.9c0,1.7,0.4,2.9,1.2,3.8c0.8,0.9,1.9,1.4,3.4,1.4
			c1,0,1.9-0.2,2.6-0.5v-1.4c-0.9,0.4-1.8,0.5-2.6,0.5c-1,0-1.7-0.3-2.2-1c-0.5-0.7-0.8-1.6-0.8-2.9
			C874,502.9,875,501.6,877.1,501.6z"/>
		<path class="st8" d="M893.8,504v6.6h1.5v-6.6c0-1.3-0.3-2.2-0.9-2.8c-0.6-0.6-1.5-0.9-2.8-0.9c-0.7,0-1.3,0.1-1.9,0.4
			c-0.6,0.3-1,0.7-1.3,1.2h-0.1l-0.3-1.4h-1.2v10.2h1.5v-5.3c0-1.3,0.2-2.3,0.7-2.9c0.5-0.6,1.3-0.9,2.3-0.9c0.8,0,1.4,0.2,1.8,0.6
			C893.6,502.5,893.8,503.2,893.8,504z"/>
		<path class="st8" d="M885.3,526.1c-1.4,0-2.4,0.5-3.3,1.4c-0.8,1-1.2,2.3-1.2,3.9c0,1.6,0.4,2.9,1.3,3.8c0.9,0.9,2.1,1.4,3.6,1.4
			c0.7,0,1.3,0,1.8-0.2c0.5-0.1,1-0.3,1.5-0.5v-1.4c-1.1,0.5-2.2,0.7-3.2,0.7c-1,0-1.8-0.3-2.4-0.9c-0.6-0.6-0.9-1.5-0.9-2.7h7v-1
			c0-1.4-0.4-2.5-1.1-3.3C887.6,526.5,886.6,526.1,885.3,526.1z M882.5,530.4c0.1-0.9,0.4-1.7,0.9-2.2c0.5-0.5,1.1-0.8,2-0.8
			c0.8,0,1.4,0.3,1.9,0.8c0.4,0.5,0.6,1.3,0.6,2.2H882.5z"/>
		<path class="st8" d="M874.5,526.1c-0.7,0-1.3,0.1-1.8,0.4c-0.5,0.2-1,0.7-1.4,1.2h-0.1l-0.2-1.4h-1.2V541h1.5v-4.2
			c0-0.5,0-1.1-0.1-1.7h0.1c0.4,0.5,0.8,0.9,1.4,1.1c0.5,0.2,1.2,0.4,1.8,0.4c1.3,0,2.4-0.5,3.1-1.4c0.7-0.9,1.1-2.2,1.1-3.9
			c0-1.7-0.4-3-1.1-3.9C876.9,526.6,875.8,526.1,874.5,526.1z M876.4,534.3c-0.5,0.7-1.2,1.1-2.1,1.1c-1,0-1.8-0.3-2.3-0.9
			c-0.5-0.6-0.7-1.6-0.7-3.1V531c0-1.3,0.2-2.2,0.7-2.8c0.5-0.6,1.2-0.9,2.3-0.9c0.9,0,1.6,0.3,2.1,1c0.5,0.7,0.7,1.7,0.7,2.9
			C877.1,532.6,876.9,533.6,876.4,534.3z"/>
		<path class="st8" d="M894.9,526.6c-0.5,0.4-1,0.9-1.4,1.5h-0.1l-0.2-1.9H892v10.2h1.5V531c0-1,0.3-1.8,0.9-2.5
			c0.6-0.7,1.3-1,2.1-1c0.3,0,0.7,0,1.1,0.1l0.2-1.4c-0.4-0.1-0.8-0.1-1.2-0.1C896,526.1,895.5,526.3,894.9,526.6z"/>
		<path class="st8" d="M920.5,526.1c-0.7,0-1.4,0.2-2,0.5c-0.6,0.3-1,0.7-1.3,1.3h-0.1c-0.5-1.2-1.5-1.7-3.1-1.7
			c-0.7,0-1.2,0.1-1.8,0.4c-0.5,0.3-0.9,0.7-1.2,1.2h-0.1l-0.3-1.4h-1.2v10.2h1.5v-5.3c0-1.3,0.2-2.3,0.7-2.8
			c0.5-0.6,1.2-0.9,2.1-0.9c0.7,0,1.3,0.2,1.6,0.6c0.3,0.4,0.5,1,0.5,1.8v6.6h1.5v-5.7c0-1.1,0.2-2,0.7-2.5c0.5-0.6,1.2-0.8,2.1-0.8
			c0.7,0,1.3,0.2,1.6,0.6c0.3,0.4,0.5,1,0.5,1.8v6.6h1.5v-6.6c0-1.3-0.3-2.2-0.9-2.8C922.5,526.4,921.6,526.1,920.5,526.1z"/>
		<rect x="924.5" y="496.1" class="st8" width="1.5" height="14.4"/>
		<path class="st8" d="M901.8,500.2c-1.2,0-2.2,0.3-2.8,0.9c-0.7,0.6-1,1.5-1,2.6c0,0.7,0.2,1.3,0.5,1.8c0.3,0.5,0.8,0.9,1.3,1.1
			c-0.4,0.3-0.7,0.5-0.9,0.8c-0.2,0.3-0.3,0.6-0.3,1c0,0.3,0.1,0.6,0.3,0.9c0.2,0.2,0.4,0.4,0.7,0.5c-0.7,0.2-1.3,0.5-1.7,0.9
			c-0.4,0.5-0.6,1-0.6,1.6c0,0.9,0.4,1.6,1.1,2.1c0.7,0.5,1.7,0.7,3.1,0.7c1.7,0,3.1-0.3,4-0.9c0.9-0.6,1.4-1.4,1.4-2.6
			c0-0.9-0.3-1.6-0.9-2c-0.6-0.5-1.4-0.7-2.5-0.7h-1.8c-0.6,0-0.9-0.1-1.2-0.2c-0.2-0.1-0.3-0.3-0.3-0.6c0-0.5,0.3-1,1-1.3
			c0.3,0,0.5,0.1,0.9,0.1c1.2,0,2.1-0.3,2.8-0.9c0.7-0.6,1-1.4,1-2.4c0-0.4-0.1-0.8-0.2-1.2c-0.1-0.3-0.3-0.6-0.5-0.8l1.9-0.2v-1
			h-3.5C902.8,500.3,902.4,500.2,901.8,500.2z M900.9,510.3h1.8c0.9,0,1.6,0.1,1.9,0.3c0.3,0.2,0.5,0.6,0.5,1.1
			c0,0.7-0.3,1.2-0.9,1.6c-0.6,0.4-1.6,0.6-2.9,0.6c-0.9,0-1.5-0.1-2-0.4c-0.5-0.3-0.7-0.7-0.7-1.2c0-0.6,0.2-1.1,0.6-1.4
			C899.6,510.5,900.2,510.3,900.9,510.3z M904,503.6c0,1.5-0.8,2.2-2.3,2.2c-0.7,0-1.3-0.2-1.7-0.5c-0.4-0.4-0.6-0.9-0.6-1.6
			c0-0.8,0.2-1.3,0.6-1.7c0.4-0.4,0.9-0.6,1.7-0.6C903.3,501.3,904,502.1,904,503.6z"/>
		<path class="st8" d="M899.7,534.2c-0.1,0.6-0.2,1.3-0.4,2.3c-0.2,0.9-0.4,1.7-0.6,2.4h1.2c0.3-0.7,0.6-1.5,0.9-2.3
			c0.3-0.8,0.5-1.5,0.7-2.2l-0.1-0.2H899.7z"/>
		<path class="st8" d="M837.8,500.3l0,0.7l0.1,0.7h-0.1c-0.7-1-1.8-1.5-3.2-1.5c-1.3,0-2.4,0.5-3.1,1.4c-0.7,0.9-1.1,2.2-1.1,3.9
			c0,1.7,0.4,3,1.1,3.9c0.7,0.9,1.8,1.4,3.1,1.4c1.4,0,2.5-0.5,3.2-1.6h0.1l0.2,1.4h1.2v-14.4h-1.5V500.3z M837.8,505.8
			c0,1.3-0.2,2.2-0.7,2.8c-0.5,0.6-1.2,0.9-2.3,0.9c-0.9,0-1.6-0.3-2.1-1c-0.5-0.7-0.7-1.6-0.7-2.9c0-1.3,0.2-2.3,0.7-3
			c0.5-0.7,1.2-1.1,2.1-1.1c1,0,1.8,0.3,2.3,0.9c0.5,0.6,0.7,1.6,0.7,3.1V505.8z"/>
		<path class="st8" d="M636.6,552c-0.7,0-1.3,0.1-1.9,0.4c-0.6,0.3-1,0.7-1.3,1.2h-0.1l-0.3-1.4h-1.3v10.2h1.5V557
			c0-1.3,0.2-2.3,0.7-2.8c0.5-0.6,1.3-0.9,2.3-0.9c0.8,0,1.4,0.2,1.8,0.6c0.4,0.4,0.6,1,0.6,1.9v6.6h1.5v-6.6c0-1.3-0.3-2.2-0.9-2.8
			C638.7,552.3,637.8,552,636.6,552z"/>
		<path class="st8" d="M636.2,536.6c0.7,0,1.3,0,1.8-0.2c0.5-0.1,1-0.3,1.5-0.5v-1.4c-1.1,0.5-2.2,0.7-3.2,0.7c-1,0-1.8-0.3-2.4-0.9
			c-0.6-0.6-0.9-1.5-0.9-2.7h7v-1c0-1.4-0.4-2.5-1.1-3.3c-0.7-0.8-1.8-1.3-3-1.3c-1.4,0-2.4,0.5-3.3,1.4c-0.8,1-1.2,2.3-1.2,3.9
			c0,1.6,0.4,2.9,1.3,3.8C633.5,536.2,634.7,536.6,636.2,536.6z M633.9,528.2c0.5-0.5,1.1-0.8,2-0.8c0.8,0,1.4,0.3,1.9,0.8
			c0.4,0.5,0.6,1.3,0.6,2.2H633C633.1,529.4,633.4,528.7,633.9,528.2z"/>
		<path class="st8" d="M634.7,509.1c-0.4,0.3-1.1,0.4-1.9,0.4c-0.5,0-1.1-0.1-1.6-0.2c-0.6-0.1-1.1-0.3-1.6-0.6v1.4
			c0.8,0.4,1.8,0.6,3.2,0.6c1.3,0,2.3-0.3,3-0.8c0.7-0.5,1.1-1.2,1.1-2.2c0-0.7-0.2-1.2-0.6-1.7c-0.4-0.4-1.2-0.9-2.4-1.3
			c-0.9-0.3-1.5-0.6-1.8-0.8c-0.3-0.2-0.5-0.4-0.7-0.5c-0.1-0.2-0.2-0.4-0.2-0.7c0-0.4,0.2-0.7,0.6-0.9c0.4-0.2,0.9-0.3,1.7-0.3
			c0.8,0,1.8,0.2,2.8,0.6l0.5-1.3c-1-0.4-2.1-0.7-3.2-0.7c-1.2,0-2.1,0.2-2.8,0.7c-0.7,0.5-1,1.1-1,2c0,0.5,0.1,0.9,0.3,1.2
			c0.2,0.3,0.5,0.6,0.9,0.9c0.4,0.3,1.1,0.6,2,0.9c1,0.4,1.7,0.7,2,1c0.3,0.3,0.5,0.6,0.5,1C635.4,508.5,635.2,508.8,634.7,509.1z"
			/>
		<path class="st8" d="M625,526.1c-0.7,0-1.3,0.1-1.8,0.4c-0.5,0.2-1,0.7-1.4,1.2h-0.1l-0.2-1.4h-1.3V541h1.5v-4.2
			c0-0.5,0-1.1-0.1-1.7h0.1c0.4,0.5,0.8,0.9,1.4,1.1c0.5,0.2,1.2,0.4,1.8,0.4c1.3,0,2.4-0.5,3.1-1.4c0.7-0.9,1.1-2.2,1.1-3.9
			c0-1.7-0.4-3-1.1-3.9C627.4,526.6,626.4,526.1,625,526.1z M626.9,534.3c-0.5,0.7-1.2,1.1-2.1,1.1c-1,0-1.8-0.3-2.3-0.9
			c-0.5-0.6-0.7-1.6-0.7-3.1V531c0-1.3,0.2-2.2,0.7-2.8c0.5-0.6,1.2-0.9,2.3-0.9c0.9,0,1.6,0.3,2.1,1c0.5,0.7,0.7,1.7,0.7,2.9
			C627.7,532.6,627.4,533.6,626.9,534.3z"/>
		<path class="st8" d="M764.7,526.1c-1.4,0-2.4,0.5-3.3,1.4c-0.8,1-1.2,2.3-1.2,3.9c0,1.6,0.4,2.9,1.3,3.8c0.9,0.9,2.1,1.4,3.6,1.4
			c0.7,0,1.3,0,1.8-0.2c0.5-0.1,1-0.3,1.5-0.5v-1.4c-1.1,0.5-2.2,0.7-3.2,0.7c-1,0-1.8-0.3-2.4-0.9c-0.6-0.6-0.9-1.5-0.9-2.7h7v-1
			c0-1.4-0.4-2.5-1.1-3.3C766.9,526.5,765.9,526.1,764.7,526.1z M761.8,530.4c0.1-0.9,0.4-1.7,0.9-2.2c0.5-0.5,1.1-0.8,1.9-0.8
			c0.8,0,1.4,0.3,1.9,0.8c0.4,0.5,0.7,1.3,0.7,2.2H761.8z"/>
		<path class="st8" d="M645.5,526.6c-0.5,0.4-1,0.9-1.4,1.5H644l-0.2-1.9h-1.3v10.2h1.5V531c0-1,0.3-1.8,0.9-2.5
			c0.6-0.7,1.3-1,2.1-1c0.3,0,0.7,0,1.1,0.1l0.2-1.4c-0.4-0.1-0.8-0.1-1.2-0.1C646.6,526.1,646,526.3,645.5,526.6z"/>
		<path class="st8" d="M647.5,509.5c-0.5,0-0.9-0.2-1.2-0.5c-0.3-0.3-0.4-0.8-0.4-1.4v-6h3v-1.2h-3V498h-0.9l-0.6,2.2l-1.5,0.6v0.7
			h1.5v6c0,2.1,1,3.1,2.9,3.1c0.3,0,0.6,0,0.9-0.1c0.3-0.1,0.6-0.1,0.7-0.2v-1.2c-0.2,0-0.4,0.1-0.6,0.1
			C648,509.5,647.7,509.5,647.5,509.5z"/>
		<path class="st8" d="M643.4,560.1c-0.1,0.6-0.2,1.3-0.4,2.3c-0.2,0.9-0.4,1.7-0.6,2.4h1.2c0.3-0.7,0.6-1.5,0.9-2.3
			c0.3-0.8,0.5-1.5,0.7-2.2l-0.1-0.2H643.4z"/>
		<path class="st8" d="M640.1,496.6c-0.3,0-0.5,0.1-0.6,0.2c-0.2,0.2-0.3,0.4-0.3,0.8c0,0.4,0.1,0.6,0.3,0.8
			c0.2,0.2,0.4,0.3,0.6,0.3c0.2,0,0.5-0.1,0.6-0.3c0.2-0.2,0.3-0.4,0.3-0.8c0-0.3-0.1-0.6-0.3-0.8
			C640.6,496.7,640.4,496.6,640.1,496.6z"/>
		<path class="st8" d="M611.3,548.4c-0.3,0-0.5,0.1-0.6,0.2c-0.2,0.2-0.3,0.4-0.3,0.8c0,0.4,0.1,0.6,0.3,0.8
			c0.2,0.2,0.4,0.3,0.6,0.3c0.2,0,0.5-0.1,0.6-0.3c0.2-0.2,0.3-0.4,0.3-0.8c0-0.3-0.1-0.6-0.3-0.8
			C611.8,548.5,611.5,548.4,611.3,548.4z"/>
		<path class="st8" d="M656.9,552c-1.4,0-2.4,0.5-3.3,1.4c-0.8,1-1.2,2.3-1.2,3.9c0,1.6,0.4,2.9,1.3,3.8c0.9,0.9,2.1,1.4,3.6,1.4
			c0.7,0,1.3,0,1.8-0.2c0.5-0.1,1-0.3,1.5-0.5v-1.4c-1.1,0.5-2.2,0.7-3.2,0.7c-1,0-1.8-0.3-2.4-0.9c-0.6-0.6-0.9-1.5-0.9-2.7h7v-1
			c0-1.4-0.4-2.5-1.1-3.3C659.2,552.4,658.2,552,656.9,552z M654.1,556.3c0.1-0.9,0.4-1.7,0.9-2.2c0.5-0.5,1.1-0.8,2-0.8
			c0.8,0,1.4,0.3,1.9,0.8c0.4,0.5,0.6,1.3,0.6,2.2H654.1z"/>
		<rect x="610.5" y="552.2" class="st8" width="1.5" height="10.2"/>
		<path class="st8" d="M614.9,505.5c0-1.6-0.4-2.9-1.3-3.8c-0.8-0.9-2-1.4-3.4-1.4c-1.5,0-2.6,0.5-3.4,1.4c-0.8,0.9-1.2,2.2-1.2,3.9
			c0,1.1,0.2,2,0.6,2.8c0.4,0.8,0.9,1.4,1.6,1.8c0.7,0.4,1.5,0.6,2.4,0.6c1.5,0,2.6-0.5,3.5-1.4
			C614.5,508.4,614.9,507.1,614.9,505.5z M612.5,508.4c-0.5,0.7-1.3,1-2.3,1c-1,0-1.8-0.3-2.3-1c-0.5-0.7-0.8-1.7-0.8-3
			c0-1.3,0.3-2.3,0.8-3c0.5-0.7,1.3-1,2.3-1c1,0,1.8,0.3,2.3,1c0.5,0.7,0.8,1.7,0.8,2.9C613.3,506.8,613.1,507.8,612.5,508.4z"/>
		<path class="st8" d="M614.1,531c0-1,0.3-1.8,0.9-2.5c0.6-0.7,1.3-1,2.1-1c0.3,0,0.7,0,1.1,0.1l0.2-1.4c-0.4-0.1-0.8-0.1-1.2-0.1
			c-0.6,0-1.2,0.2-1.8,0.5c-0.5,0.4-1,0.9-1.4,1.5H614l-0.2-1.9h-1.3v10.2h1.5V531z"/>
		<path class="st8" d="M618.6,561.2c-0.5,0-0.9-0.2-1.2-0.5c-0.3-0.3-0.4-0.8-0.4-1.4v-6h3v-1.2h-3v-2.4h-0.9l-0.6,2.2l-1.5,0.6v0.7
			h1.5v6c0,2.1,1,3.1,2.9,3.1c0.3,0,0.6,0,0.9-0.1c0.3-0.1,0.6-0.1,0.7-0.2v-1.2c-0.1,0-0.3,0.1-0.6,0.1
			C619.1,561.2,618.9,561.2,618.6,561.2z"/>
		<rect x="627" y="552.2" class="st8" width="1.5" height="10.2"/>
		<path class="st8" d="M627.7,548.4c-0.3,0-0.5,0.1-0.6,0.2c-0.2,0.2-0.3,0.4-0.3,0.8c0,0.4,0.1,0.6,0.3,0.8s0.4,0.3,0.6,0.3
			c0.2,0,0.5-0.1,0.6-0.3c0.2-0.2,0.3-0.4,0.3-0.8c0-0.3-0.1-0.6-0.3-0.8C628.2,548.5,628,548.4,627.7,548.4z"/>
		<path class="st8" d="M623.2,501.8l0.2-1.4c-0.4-0.1-0.8-0.1-1.2-0.1c-0.6,0-1.2,0.2-1.8,0.5c-0.5,0.4-1,0.9-1.4,1.5h-0.1l-0.2-1.9
			h-1.3v10.2h1.5v-5.5c0-1,0.3-1.8,0.9-2.5c0.6-0.7,1.3-1,2.1-1C622.5,501.6,622.8,501.7,623.2,501.8z"/>
		<rect x="639.4" y="500.4" class="st8" width="1.5" height="10.2"/>
		<path class="st8" d="M740.5,536.3c0.5-0.2,1-0.7,1.5-1.3h0.1l0.3,1.4h1.1v-6.9c0-1.2-0.3-2.1-0.9-2.6c-0.6-0.5-1.5-0.8-2.7-0.8
			c-0.6,0-1.2,0.1-1.8,0.2c-0.6,0.2-1.1,0.4-1.6,0.6l0.5,1.2c1.1-0.5,2-0.8,2.9-0.8c0.8,0,1.3,0.2,1.6,0.6c0.3,0.4,0.5,1,0.5,1.8
			v0.6l-1.7,0.1c-3.3,0.1-4.9,1.2-4.9,3.2c0,1,0.3,1.7,0.9,2.2c0.6,0.5,1.4,0.8,2.4,0.8C739.4,536.6,740,536.5,740.5,536.3z
			 M737,533.7c0-0.7,0.3-1.2,0.8-1.6c0.5-0.3,1.4-0.5,2.6-0.6l1.5-0.1v0.9c0,0.9-0.3,1.7-0.8,2.2c-0.5,0.5-1.3,0.8-2.3,0.8
			c-0.6,0-1.1-0.1-1.4-0.4C737.2,534.6,737,534.2,737,533.7z"/>
		<path class="st8" d="M659.2,526.1c-1.4,0-2.4,0.5-3.3,1.4c-0.8,1-1.2,2.3-1.2,3.9c0,1.6,0.4,2.9,1.3,3.8c0.9,0.9,2.1,1.4,3.6,1.4
			c0.7,0,1.3,0,1.8-0.2c0.5-0.1,1-0.3,1.5-0.5v-1.4c-1.1,0.5-2.2,0.7-3.2,0.7c-1,0-1.8-0.3-2.4-0.9c-0.6-0.6-0.9-1.5-0.9-2.7h7v-1
			c0-1.4-0.4-2.5-1.1-3.3C661.5,526.5,660.5,526.1,659.2,526.1z M656.4,530.4c0.1-0.9,0.4-1.7,0.9-2.2c0.5-0.5,1.1-0.8,2-0.8
			c0.8,0,1.4,0.3,1.9,0.8c0.4,0.5,0.6,1.3,0.6,2.2H656.4z"/>
		<path class="st8" d="M732.7,557.5c0,1.3-0.2,2.3-0.7,2.9c-0.5,0.6-1.3,0.9-2.3,0.9c-0.8,0-1.4-0.2-1.8-0.6c-0.4-0.4-0.6-1-0.6-1.9
			v-6.6h-1.6v6.7c0,1.3,0.3,2.2,0.9,2.8c0.6,0.6,1.5,0.9,2.8,0.9c0.7,0,1.4-0.1,1.9-0.4c0.6-0.3,1-0.6,1.3-1.1h0.1l0.2,1.4h1.3
			v-10.2h-1.5V557.5z"/>
		<rect x="726.6" y="522" class="st8" width="1.5" height="14.4"/>
		<path class="st8" d="M767.1,553.5L767.1,553.5c-0.8-1-1.9-1.6-3.3-1.6c-1.3,0-2.4,0.5-3.1,1.4c-0.7,0.9-1.1,2.2-1.1,3.9
			c0,1.7,0.4,2.9,1.1,3.9c0.7,0.9,1.8,1.4,3.1,1.4c1.4,0,2.5-0.5,3.2-1.5h0.1c-0.1,0.4-0.1,1-0.1,1.6v4.3h1.5v-14.7h-1.2
			L767.1,553.5z M767,557.6c0,1.3-0.3,2.2-0.8,2.8c-0.5,0.5-1.2,0.8-2.2,0.8c-0.9,0-1.6-0.3-2.1-1c-0.5-0.7-0.7-1.6-0.7-2.9
			c0-1.3,0.2-2.3,0.7-3c0.5-0.7,1.2-1.1,2.1-1.1c1,0,1.8,0.3,2.3,0.9c0.5,0.6,0.7,1.6,0.7,3.1V557.6z"/>
		<path class="st8" d="M755.2,530.7c-0.9-0.3-1.5-0.6-1.8-0.7c-0.3-0.2-0.5-0.4-0.7-0.5c-0.1-0.2-0.2-0.4-0.2-0.7
			c0-0.4,0.2-0.7,0.6-0.9c0.4-0.2,0.9-0.3,1.7-0.3c0.8,0,1.8,0.2,2.8,0.6l0.5-1.3c-1-0.4-2.1-0.7-3.2-0.7c-1.2,0-2.1,0.2-2.8,0.7
			c-0.7,0.5-1,1.1-1,2c0,0.5,0.1,0.9,0.3,1.2c0.2,0.3,0.5,0.6,0.9,0.9c0.4,0.3,1.1,0.6,2,0.9c1,0.4,1.7,0.7,2,1
			c0.3,0.3,0.5,0.6,0.5,1c0,0.5-0.2,0.9-0.7,1.2c-0.4,0.3-1,0.4-1.9,0.4c-0.5,0-1.1-0.1-1.6-0.2c-0.6-0.1-1.1-0.3-1.6-0.6v1.4
			c0.8,0.4,1.8,0.6,3.2,0.6c1.3,0,2.3-0.3,3-0.8s1.1-1.2,1.1-2.2c0-0.7-0.2-1.2-0.6-1.7C757.2,531.5,756.4,531.1,755.2,530.7z"/>
		<path class="st8" d="M722.4,561.2c-0.5,0-0.9-0.2-1.2-0.5c-0.3-0.3-0.4-0.8-0.4-1.4v-6h3v-1.2h-3v-2.4h-0.9l-0.7,2.2l-1.5,0.6v0.7
			h1.5v6c0,2.1,1,3.1,3,3.1c0.3,0,0.6,0,0.9-0.1c0.3-0.1,0.6-0.1,0.7-0.2v-1.2c-0.2,0-0.3,0.1-0.6,0.1
			C723,561.2,722.7,561.2,722.4,561.2z"/>
		<path class="st8" d="M759.9,508.7c-1.1,0.5-2.2,0.7-3.2,0.7c-1,0-1.8-0.3-2.4-0.9c-0.6-0.6-0.9-1.5-0.9-2.7h7v-1
			c0-1.4-0.4-2.5-1.1-3.3c-0.7-0.8-1.8-1.3-3-1.3c-1.4,0-2.4,0.5-3.3,1.4c-0.8,1-1.2,2.3-1.2,3.9c0,1.6,0.4,2.9,1.3,3.8
			c0.9,0.9,2.1,1.4,3.6,1.4c0.7,0,1.3-0.1,1.8-0.2c0.5-0.1,1-0.3,1.5-0.5V508.7z M754.2,502.3c0.5-0.5,1.1-0.8,2-0.8
			c0.8,0,1.4,0.3,1.9,0.8c0.4,0.5,0.7,1.3,0.7,2.2h-5.3C753.4,503.6,753.7,502.8,754.2,502.3z"/>
		<path class="st8" d="M748.6,552c-0.7,0-1.4,0.2-2,0.5c-0.6,0.3-1,0.7-1.3,1.3h-0.1c-0.5-1.2-1.5-1.7-3.1-1.7
			c-0.7,0-1.2,0.1-1.8,0.4c-0.5,0.3-0.9,0.7-1.2,1.2H739l-0.2-1.4h-1.2v10.2h1.5V557c0-1.3,0.2-2.3,0.7-2.8c0.4-0.6,1.2-0.9,2.1-0.9
			c0.7,0,1.3,0.2,1.6,0.6c0.3,0.4,0.5,1,0.5,1.8v6.6h1.5v-5.7c0-1.1,0.2-2,0.7-2.5c0.5-0.5,1.2-0.8,2.1-0.8c0.7,0,1.3,0.2,1.6,0.6
			c0.4,0.4,0.5,1,0.5,1.8v6.6h1.5v-6.6c0-1.3-0.3-2.2-0.9-2.8C750.6,552.3,749.7,552,748.6,552z"/>
		<path class="st8" d="M670.5,527.5c0.3,0,0.7,0,1.1,0.1l0.2-1.4c-0.4-0.1-0.8-0.1-1.2-0.1c-0.6,0-1.2,0.2-1.8,0.5
			c-0.5,0.4-1,0.9-1.4,1.5h-0.1l-0.2-1.9h-1.3v10.2h1.5V531c0-1,0.3-1.8,0.9-2.5C668.9,527.8,669.6,527.5,670.5,527.5z"/>
		<path class="st8" d="M672.4,552c-1.4,0-2.4,0.5-3.3,1.4c-0.8,1-1.2,2.3-1.2,3.9c0,1.6,0.4,2.9,1.3,3.8c0.9,0.9,2.1,1.4,3.6,1.4
			c0.7,0,1.3,0,1.8-0.2c0.5-0.1,1-0.3,1.5-0.5v-1.4c-1.1,0.5-2.2,0.7-3.2,0.7c-1,0-1.8-0.3-2.4-0.9c-0.6-0.6-0.9-1.5-0.9-2.7h7v-1
			c0-1.4-0.4-2.5-1.1-3.3C674.7,552.4,673.7,552,672.4,552z M669.6,556.3c0.1-0.9,0.4-1.7,0.9-2.2c0.5-0.5,1.1-0.8,2-0.8
			c0.8,0,1.4,0.3,1.9,0.8c0.4,0.5,0.6,1.3,0.6,2.2H669.6z"/>
		<path class="st8" d="M679.3,535l0.3,1.4h1.1v-6.9c0-1.2-0.3-2.1-0.9-2.6c-0.6-0.5-1.5-0.8-2.7-0.8c-0.6,0-1.2,0.1-1.8,0.2
			c-0.6,0.2-1.1,0.4-1.6,0.6l0.5,1.2c1.1-0.5,2-0.8,2.9-0.8c0.8,0,1.3,0.2,1.6,0.6c0.3,0.4,0.5,1,0.5,1.8v0.6l-1.7,0.1
			c-3.3,0.1-4.9,1.2-4.9,3.2c0,1,0.3,1.7,0.9,2.2c0.6,0.5,1.4,0.8,2.4,0.8c0.8,0,1.4-0.1,1.9-0.3C678.2,536.1,678.7,535.6,679.3,535
			L679.3,535z M679.2,532.4c0,0.9-0.3,1.7-0.8,2.2c-0.5,0.5-1.3,0.8-2.3,0.8c-0.6,0-1.1-0.1-1.4-0.4c-0.3-0.3-0.5-0.7-0.5-1.3
			c0-0.7,0.3-1.2,0.8-1.6c0.5-0.3,1.4-0.5,2.6-0.6l1.5-0.1V532.4z"/>
		<path class="st8" d="M712.3,552c-0.7,0-1.3,0.1-1.9,0.4c-0.6,0.3-1,0.7-1.3,1.2H709l-0.2-1.4h-1.2v10.2h1.5V557
			c0-1.3,0.2-2.3,0.7-2.8c0.5-0.6,1.3-0.9,2.3-0.9c0.8,0,1.4,0.2,1.8,0.6c0.4,0.4,0.6,1,0.6,1.9v6.6h1.5v-6.6c0-1.3-0.3-2.2-0.9-2.8
			C714.4,552.3,713.5,552,712.3,552z"/>
		<rect x="663.7" y="547.9" class="st8" width="1.5" height="14.4"/>
		<path class="st8" d="M700.7,552c-1.4,0-2.4,0.5-3.3,1.4c-0.8,1-1.2,2.3-1.2,3.9c0,1.6,0.4,2.9,1.3,3.8c0.9,0.9,2.1,1.4,3.6,1.4
			c0.7,0,1.3,0,1.8-0.2c0.5-0.1,1-0.3,1.5-0.5v-1.4c-1.1,0.5-2.2,0.7-3.2,0.7c-1,0-1.8-0.3-2.4-0.9c-0.6-0.6-0.9-1.5-0.9-2.7h7v-1
			c0-1.4-0.4-2.5-1.1-3.3C703,552.4,702,552,700.7,552z M697.9,556.3c0.1-0.9,0.4-1.7,0.9-2.2c0.5-0.5,1.1-0.8,2-0.8
			c0.8,0,1.4,0.3,1.9,0.8c0.4,0.5,0.6,1.3,0.6,2.2H697.9z"/>
		<path class="st8" d="M690.2,552c-0.7,0-1.4,0.2-2,0.5c-0.6,0.3-1,0.7-1.3,1.3h-0.1c-0.5-1.2-1.5-1.7-3.1-1.7
			c-0.7,0-1.2,0.1-1.8,0.4c-0.5,0.3-0.9,0.7-1.2,1.2h-0.1l-0.2-1.4h-1.3v10.2h1.5V557c0-1.3,0.2-2.3,0.7-2.8
			c0.4-0.6,1.2-0.9,2.1-0.9c0.7,0,1.3,0.2,1.6,0.6c0.3,0.4,0.5,1,0.5,1.8v6.6h1.5v-5.7c0-1.1,0.2-2,0.7-2.5c0.5-0.5,1.2-0.8,2.1-0.8
			c0.7,0,1.3,0.2,1.6,0.6c0.3,0.4,0.5,1,0.5,1.8v6.6h1.5v-6.6c0-1.3-0.3-2.2-0.9-2.8C692.2,552.3,691.4,552,690.2,552z"/>
		<path class="st8" d="M698.7,510.7c0.3-0.1,0.6-0.1,0.7-0.2v-1.2c-0.1,0-0.3,0.1-0.6,0.1c-0.3,0-0.5,0.1-0.8,0.1
			c-0.5,0-0.9-0.2-1.2-0.5c-0.3-0.3-0.4-0.8-0.4-1.4v-6h3v-1.2h-3V498h-0.9l-0.6,2.2l-1.5,0.6v0.7h1.5v6c0,2.1,1,3.1,2.9,3.1
			C698,510.8,698.3,510.7,698.7,510.7z"/>
	</g>
	<rect x="735.8" y="643.2" class="st7" width="664.2" height="336.8"/>
	<rect x="818.9" y="0" class="st9" width="266.7" height="335.8"/>
	<rect x="1085.6" y="0" class="st6" width="314.4" height="643.2"/>
	<path class="st10" d="M1240.5,129.3c-30.8,0-55.9,25.2-55.9,55.9v277c0,30.7,25.2,55.9,55.9,55.9c30.7,0,55.9-25.2,55.9-55.9v-277
		C1296.4,154.5,1271.3,129.3,1240.5,129.3z"/>
	<path class="st11" d="M1260.5,179.4L1260.5,179.4c-30.8,0-55.9,25.2-55.9,55.9v176.9c0,30.7,25.2,55.9,55.9,55.9h0
		c30.7,0,55.9-25.2,55.9-55.9V235.3C1316.5,204.5,1291.3,179.4,1260.5,179.4z"/>
	<g>
		<path class="st12" d="M721.4,62.7H411.9c-8.4,0-15.4,6.9-15.4,15.4l0,188.8c0,8.4,6.9,15.4,15.4,15.4h309.4
			c8.5,0,15.4-6.9,15.4-15.4l0-188.8C736.7,69.6,729.8,62.7,721.4,62.7z"/>
		<path class="st13" d="M664.1,236.1l-97.5,0l-97.5,0c-6.8,0-11,5.7-12.4,12.4l-7.2,33.7l234.3,0l-7.2-33.7
			C675.1,241.8,671,236.1,664.1,236.1z"/>
		<path class="st14" d="M708.3,80.4l-287.2,0c-2.6,0-4.7,2.1-4.7,4.7l0,25.6c0,2.6,2.1,4.7,4.7,4.7h287.2c2.6,0,4.7-2.1,4.7-4.7
			l0-25.6C712.9,82.5,710.8,80.4,708.3,80.4z"/>
		<ellipse class="st14" cx="527.6" cy="259.1" rx="7.5" ry="7.5"/>
		<circle class="st14" cx="566.6" cy="259.1" r="7.5"/>
		<ellipse class="st14" cx="605.7" cy="259.1" rx="7.5" ry="7.5"/>
		<path class="st10" d="M701.1,128.3h-273c-6.5,0-11.8,5.3-11.8,11.8v64.7c0,6.5,5.3,11.8,11.8,11.8h273c6.5,0,11.8-5.3,11.8-11.8
			l0-64.7C712.9,133.6,707.6,128.3,701.1,128.3z"/>
		<path class="st14" d="M465.9,152.7c-10.4,0-18.8,8.4-18.8,18.8c0,10.4,8.4,18.8,18.8,18.8c10.4,0,18.8-8.4,18.8-18.8
			C484.7,161.1,476.3,152.7,465.9,152.7z"/>
		<circle class="st14" cx="663.3" cy="170.5" r="18.8"/>
		<path class="st15" d="M622.8,151.7l-116.3,0c-2.8,0-5,2.3-5,5v27.6c0,2.8,2.3,5,5,5l116.3,0c2.8,0,5-2.3,5-5l0-27.6
			C627.8,154,625.5,151.7,622.8,151.7z"/>
		<path class="st13" d="M506.5,151.7c-2.8,0-5,2.3-5,5v27.6c0,2.8,2.3,5,5,5l16.5,0c1.8-5.6,2.7-11.6,2.7-17.9
			c0-6.9-1.2-13.6-3.4-19.8H506.5z"/>
		<path class="st13" d="M622.8,151.7h-16.2c-2,5.9-3,12.2-3,18.8c0,6.6,1.1,12.9,3,18.8l16.2,0c2.8,0,5-2.3,5-5l0-27.6
			C627.8,154,625.5,151.7,622.8,151.7z"/>
	</g>
	<g>
		<rect x="915" y="757.9" class="st3" width="305.8" height="154.6"/>
		<polygon class="st6" points="1067.9,873.6 1220.8,757.9 915,757.9 		"/>
		<rect x="983.1" y="770.2" class="st10" width="169.5" height="22.5"/>
		<rect x="1035.2" y="873.6" class="st10" width="65.4" height="16.1"/>
		<polygon class="st4" points="972.9,757.9 990,757.9 990,719.8 1145.7,719.8 1145.7,757.9 1162.9,757.9 1162.9,702.6 972.9,702.6 
					"/>
		<rect x="928.6" y="798.9" class="st10" width="90.7" height="90.7"/>
		<path class="st12" d="M973.9,798.9c-25,0-45.4,20.4-45.4,45.4c0,25,20.4,45.4,45.4,45.4c25,0,45.4-20.4,45.4-45.4
			C1019.3,819.3,998.9,798.9,973.9,798.9z"/>
		<path class="st10" d="M973.9,834.2c-5.6,0-10.1,4.5-10.1,10.1c0,5.6,4.5,10.1,10.1,10.1c5.6,0,10.1-4.5,10.1-10.1
			C984,838.7,979.5,834.2,973.9,834.2z"/>
		<rect x="1116.5" y="798.9" class="st10" width="90.7" height="90.7"/>
		<path class="st12" d="M1161.8,798.9c-25,0-45.4,20.4-45.4,45.4c0,25,20.4,45.4,45.4,45.4c25,0,45.4-20.4,45.4-45.4
			C1207.2,819.3,1186.8,798.9,1161.8,798.9z"/>
		<path class="st10" d="M1161.8,834.2c-5.6,0-10.1,4.5-10.1,10.1c0,5.6,4.5,10.1,10.1,10.1c5.6,0,10.1-4.5,10.1-10.1
			C1172,838.7,1167.4,834.2,1161.8,834.2z"/>
		<rect x="1035.2" y="798.9" class="st0" width="65.4" height="59.1"/>
	</g>
	<g>
		<g>
			<path class="st16" d="M578.6,714.7c-51.3-29.6-116.8-12-146.4,39.2c-29.6,51.3-12,116.8,39.2,146.4
				c51.3,29.6,116.8,12,146.4-39.2C647.5,809.9,629.9,744.3,578.6,714.7z M554.9,824.8c-9.5,16.5-30.6,22.2-47.1,12.6
				c-16.5-9.5-22.2-30.6-12.6-47.1s30.6-22.2,47.1-12.6C558.8,787.2,564.5,808.3,554.9,824.8z"/>
			<path class="st17" d="M578.6,714.7c-51.3-29.6-116.8-12-146.4,39.2c-8.5,14.7-13.1,30.7-14.1,46.6c10.7,5.2,24.6,7.9,36.2,19.2
				c12.1,11.8,21.5,39.3,53.6,47.9c34.6,9.3,41.6-27.5,70.3-20.9c16.1,3.7,19.7,18.7,28.5,30.3c4.2-4.9,7.9-10.2,11.3-16
				C647.5,809.9,629.9,744.3,578.6,714.7z M554.9,824.8c-9.5,16.5-30.6,22.2-47.1,12.6c-16.5-9.5-22.2-30.6-12.6-47.1
				s30.6-22.2,47.1-12.6C558.8,787.2,564.5,808.3,554.9,824.8z"/>
		</g>
		<path class="st14" d="M467.8,776.7l-13.7-7.6c-1.7-1-4-0.3-4.9,1.4c-1,1.7-0.3,4,1.4,4.9l13.7,7.6c1.7,1,4,0.3,4.9-1.4
			S469.5,777.7,467.8,776.7z"/>
		<path class="st14" d="M491.1,742l-9.9,12.1c-1.3,1.5-1,3.8,0.5,5.1v0c1.5,1.3,3.8,1,5.1-0.5l9.9-12.1c1.3-1.5,1-3.8-0.5-5.1
			C494.7,740.2,492.4,740.4,491.1,742z"/>
		<path class="st14" d="M542.1,739.7c-1.9-0.7-4,0.2-4.7,2.1l-5.7,14.6c-0.7,1.9,0.2,4,2.1,4.7c1.9,0.7,4-0.2,4.7-2.1l5.7-14.6
			C544.9,742.5,544,740.4,542.1,739.7z"/>
		<path class="st14" d="M530,727.8l-12.8-9c-1.6-1.1-3.9-0.7-5,0.9l0,0c-1.1,1.6-0.7,3.9,0.9,5l12.8,9c1.6,1.1,3.9,0.7,5-0.9v0
			C532,731.2,531.6,728.9,530,727.8z"/>
		<path class="st14" d="M595.9,775.1l-12.8-9c-1.6-1.1-3.9-0.7-5,0.9c-1.1,1.6-0.7,3.9,0.9,5l12.8,9c1.6,1.1,3.9,0.7,5-0.9
			C598,778.5,597.6,776.2,595.9,775.1z"/>
		<path class="st14" d="M581.9,738.2l-12.8-9c-1.6-1.1-3.9-0.7-5,0.9h0c-1.1,1.6-0.7,3.9,0.9,5l12.8,9c1.6,1.1,3.9,0.7,5-0.9v0
			C583.9,741.6,583.5,739.4,581.9,738.2z"/>
		<path class="st14" d="M594,789.5L594,789.5c-1.9-0.7-4,0.2-4.7,2.1l-5.7,14.6c-0.7,1.9,0.2,4,2.1,4.7h0c1.9,0.7,4-0.2,4.7-2.1
			l5.7-14.6C596.8,792.3,595.9,790.2,594,789.5z"/>
		<path class="st14" d="M439.3,800.1l-9.9,12.1c-1.3,1.5-1,3.8,0.5,5.1h0c1.5,1.3,3.8,1,5.1-0.5l9.9-12.1c1.3-1.5,1-3.8-0.5-5.1
			C442.9,798.3,440.6,798.6,439.3,800.1z"/>
		<path class="st14" d="M473.7,851.6L460,844c-1.7-1-4-0.3-4.9,1.4c-1,1.7-0.3,4,1.4,4.9l13.7,7.6c1.7,1,4,0.3,4.9-1.4
			C476.1,854.8,475.5,852.6,473.7,851.6z"/>
		<path class="st14" d="M476.1,817.4c-0.9-1.8-3.1-2.4-4.9-1.5l-13.9,7.3c-1.8,0.9-2.4,3.1-1.5,4.9v0c0.9,1.8,3.1,2.4,4.9,1.5
			l13.9-7.3C476.4,821.3,477,819.1,476.1,817.4L476.1,817.4z"/>
	</g>
	<g>
		<path class="st2" d="M186,570.9v-1.7h0.8c0.7,0,1.3-0.6,1.3-1.3v-2.6c0-0.7-0.6-1.3-1.3-1.3H186v-22c1.2-0.3,2.1-1.3,2.1-2.6
			c0-1.2-0.9-2.3-2.1-2.6v-0.1h-0.6h-56.1h-0.6v0.1c-1.2,0.3-2.1,1.3-2.1,2.6c0,1.3,0.9,2.3,2.1,2.6v22H128c-0.7,0-1.3,0.6-1.3,1.3
			v2.6c0,0.7,0.6,1.3,1.3,1.3h0.7l-28.7,168.7c-2.5,14.6-1,27,4.6,37.8v143c0,6.6,5.4,12.1,12.1,12.1h80.8c6.6,0,12.1-5.4,12.1-12.1
			v-143c5.6-10.8,7.1-23.2,4.6-37.8L186,570.9z"/>
		<path class="st18" d="M193.4,614.8H121l-20.9,123.1c-2.5,14.6-1,27,4.6,37.8v143c0,6.6,5.4,12.1,12.1,12.1h80.8
			c6.6,0,12.1-5.4,12.1-12.1v-143c5.6-10.8,7.1-23.2,4.6-37.8L193.4,614.8z"/>
		<path class="st19" d="M185.2,533.1h-56c-3.1,0-5.6,2.5-5.6,5.6v5.6h67.3v-5.6C190.8,535.6,188.3,533.1,185.2,533.1z"/>
	</g>
	<g>
		<polygon class="st0" points="952.3,299.4 1013.1,106.2 891.4,106.2 		"/>
		<path class="st17" d="M952.3,45.5c-33.5,0-60.7,27.1-60.8,60.6h121.6C1013,72.6,985.8,45.5,952.3,45.5z"/>
	</g>
	<g>
		<path class="st0" d="M1202.6,326.1l-2.6-4.8c-4.8,2.6-8.8,6.4-11.6,10.9c-2.8,4.5-4.5,9.8-4.6,15.2c-0.2,5.5,1.1,10.8,3.6,15.5
			c2.5,4.7,6.2,8.7,10.9,11.6l2.9-4.6c-3.8-2.4-6.9-5.7-9-9.6c-2.1-3.9-3.1-8.2-3-12.8c0.2-4.5,1.5-8.8,3.8-12.6
			C1195.3,331.3,1198.6,328.2,1202.6,326.1z"/>
		<path class="st0" d="M1165.2,227.6l-2.6-4.8c-4.9,2.6-8.8,6.4-11.6,10.9c-2.8,4.5-4.4,9.7-4.6,15.2l0,0
			c-0.2,5.5,1.1,10.8,3.6,15.5c2.5,4.7,6.2,8.7,10.9,11.6l2.9-4.6c-3.8-2.4-6.9-5.7-9-9.6c-2.1-3.9-3.1-8.2-3-12.8
			c0.2-4.5,1.5-8.8,3.8-12.5C1157.9,232.9,1161.2,229.7,1165.2,227.6z"/>
		<path class="st0" d="M1162,324.8l-2.6-4.8c-4.8,2.6-8.8,6.4-11.6,10.9c-2.8,4.5-4.4,9.7-4.6,15.2v0c-0.2,5.5,1.1,10.8,3.6,15.5
			c2.5,4.7,6.2,8.7,10.9,11.6l2.9-4.6c-3.8-2.4-6.9-5.7-9-9.6c-2.1-3.9-3.1-8.3-3-12.8c0.2-4.5,1.5-8.8,3.8-12.6
			C1154.7,330,1158,326.9,1162,324.8z"/>
		<path class="st0" d="M1239.1,239.3c2.3-3.7,5.6-6.8,9.6-9l-2.6-4.8c-4.8,2.6-8.8,6.4-11.6,10.9c-2.8,4.5-4.5,9.8-4.6,15.2
			c-0.2,5.5,1.1,10.8,3.6,15.5c2.5,4.7,6.2,8.7,10.9,11.6l2.9-4.6c-3.8-2.4-6.9-5.7-9-9.6c-2.1-3.9-3.1-8.3-3-12.8l0,0
			C1235.4,247.3,1236.8,243,1239.1,239.3z"/>
		<path class="st0" d="M1196.2,237.9c2.3-3.7,5.6-6.8,9.6-9l-2.6-4.8c-4.9,2.6-8.8,6.4-11.6,10.9c-2.8,4.5-4.5,9.8-4.6,15.2
			c-0.2,5.5,1.1,10.8,3.6,15.5c2.5,4.7,6.2,8.7,10.9,11.6l2.9-4.6c-3.8-2.4-6.9-5.7-9-9.6c-2.1-3.9-3.1-8.2-3-12.8
			C1192.5,245.9,1193.9,241.6,1196.2,237.9z"/>
		<path class="st0" d="M1231.3,333.6c-2.8,4.5-4.4,9.7-4.6,15.2v0c-0.2,5.5,1.1,10.8,3.6,15.5c2.5,4.7,6.2,8.7,10.9,11.6l2.9-4.6
			c-3.8-2.4-6.9-5.7-9-9.6c-2.1-3.9-3.1-8.3-3-12.8c0.2-4.5,1.5-8.8,3.8-12.5c2.3-3.7,5.6-6.8,9.6-9l-2.6-4.8
			C1238.1,325.3,1234.1,329.1,1231.3,333.6z"/>
		<path class="st7" d="M1163.8,271.5l-2.9,4.6c3.8,2.4,6.9,5.7,9,9.6c2.1,3.9,3.1,8.3,3,12.8l0,0c-0.2,4.5-1.5,8.8-3.8,12.6
			c-2.3,3.7-5.6,6.8-9.6,9l2.6,4.8c4.8-2.6,8.8-6.4,11.6-10.9c2.8-4.5,4.5-9.8,4.6-15.2c0.2-5.5-1.1-10.8-3.6-15.5
			C1172.1,278.4,1168.4,274.4,1163.8,271.5z"/>
		<path class="st7" d="M1160.6,368.6l-2.9,4.6c3.8,2.4,6.9,5.7,9,9.6c2.1,3.9,3.1,8.3,3,12.8l0,0c-0.2,4.5-1.5,8.8-3.8,12.6
			c-2.3,3.7-5.6,6.8-9.6,9l2.6,4.8c4.9-2.6,8.8-6.4,11.6-10.9c2.8-4.5,4.5-9.8,4.6-15.2c0.2-5.5-1.1-10.8-3.6-15.5
			C1168.9,375.6,1165.2,371.5,1160.6,368.6z"/>
		<path class="st7" d="M1201.1,370l-2.9,4.6c3.8,2.4,6.9,5.7,9,9.6c2.1,3.9,3.1,8.2,3,12.8l0,0c-0.1,4.5-1.5,8.8-3.8,12.5
			c-2.3,3.7-5.6,6.8-9.6,9l2.6,4.8c4.9-2.6,8.8-6.4,11.6-10.9c2.8-4.5,4.4-9.7,4.6-15.2c0.2-5.5-1.1-10.8-3.6-15.5
			C1209.5,376.9,1205.8,372.9,1201.1,370z"/>
		<path class="st7" d="M1204.3,272.8l-2.9,4.6c3.8,2.4,6.9,5.7,9,9.6c2.1,3.9,3.1,8.3,3,12.8l0,0c-0.2,4.5-1.5,8.8-3.8,12.6
			c-2.3,3.7-5.6,6.8-9.6,9l2.6,4.8c4.8-2.6,8.8-6.4,11.6-10.9c2.8-4.5,4.5-9.8,4.6-15.3c0.2-5.5-1.1-10.8-3.6-15.5
			C1212.7,279.8,1209,275.7,1204.3,272.8z"/>
		<path class="st7" d="M1244,371.4l-2.9,4.6c3.8,2.4,6.9,5.7,9,9.6c2.1,3.9,3.1,8.2,3,12.8c-0.1,4.5-1.5,8.8-3.8,12.6
			c-2.3,3.7-5.6,6.8-9.6,9l2.6,4.8c4.8-2.6,8.8-6.4,11.6-10.9c2.8-4.5,4.5-9.8,4.6-15.2c0.2-5.5-1.1-10.8-3.6-15.5
			C1252.4,378.3,1248.7,374.3,1244,371.4z"/>
		<path class="st7" d="M1247.2,274.2l-2.9,4.6c3.8,2.4,6.9,5.7,9,9.6c2.1,3.9,3.1,8.3,3,12.8l0,0c-0.2,4.5-1.5,8.8-3.8,12.6
			c-2.3,3.7-5.6,6.8-9.6,9l2.6,4.8c4.9-2.6,8.8-6.4,11.6-10.9c2.8-4.5,4.5-9.8,4.6-15.2c0.2-5.5-1.1-10.8-3.6-15.5
			C1255.6,281.2,1251.9,277.1,1247.2,274.2z"/>
	</g>
	<g>
		<g>
			<path class="st17" d="M157.2,63.8L157.2,63.8c-52.6,0-95.7,43.1-95.7,95.7v177.1c0,52.6,43.1,95.7,95.7,95.7h0
				c52.6,0,95.7-43.1,95.7-95.7V159.6C252.9,106.9,209.8,63.8,157.2,63.8z"/>
			<g>
				<path class="st3" d="M265.3,181.1h-7.9h-93.5h-13.4H56.9H49c-1.8,0-3.3,1.5-3.3,3.3v15.3c0,1.8,1.5,3.3,3.3,3.3h7.9v24.9
					c0,25.7,21,46.8,46.8,46.8h0c25.7,0,46.8-21,46.8-46.8V203h13.4v24.9c0,25.7,21,46.8,46.8,46.8c25.7,0,46.8-21,46.8-46.8V203
					h7.9c1.8,0,3.3-1.5,3.3-3.3v-15.3C268.6,182.6,267.1,181.1,265.3,181.1z"/>
				<path class="st7" d="M127,197.7h-23.3H80.4c-10.2,0-13.4,6.7-13.4,16.3v13.9c0,20.2,16.5,36.7,36.7,36.7
					c20.2,0,36.7-16.5,36.7-36.7V214C140.4,204.3,137.2,197.7,127,197.7z"/>
				<path class="st7" d="M234,197.7h-23.3h-23.3c-10.2,0-13.4,6.7-13.4,16.3v13.9c0,20.2,16.5,36.7,36.7,36.7
					c20.2,0,36.7-16.5,36.7-36.7V214C247.4,204.3,244.2,197.7,234,197.7z"/>
			</g>
		</g>
		<path class="st9" d="M157.2,48.2L157.2,48.2C97.5,48.2,48.7,97,48.7,156.7v24.4h217v-24.4C265.7,97,216.9,48.2,157.2,48.2z"/>
		<path class="st14" d="M155.4,385.7c23.3,0,42.2-18.9,42.2-42.2h-84.4C113.2,366.8,132.1,385.7,155.4,385.7z"/>
	</g>
</g>
</svg>
