<?xml version="1.0" encoding="utf-8"?>
<!-- Generator: Adobe Illustrator 19.0.0, SVG Export Plug-In . SVG Version: 6.00 Build 0)  -->
<svg version="1.0" id="Layer_1" xmlns="http://www.w3.org/2000/svg" xmlns:xlink="http://www.w3.org/1999/xlink" x="0px" y="0px"
	 width="1400px" height="980px" viewBox="0 0 1400 980" enable-background="new 0 0 1400 980" xml:space="preserve">
<g id="XMLID_41_">
	<defs>
		<rect id="XMLID_36_" width="1400" height="980"/>
	</defs>
	<clipPath id="XMLID_46_">
		<use xlink:href="#XMLID_36_"  overflow="visible"/>
	</clipPath>
	<g id="XMLID_35_" clip-path="url(#XMLID_46_)">
		<rect id="XMLID_2_" fill="#FFF200" width="531.8" height="980"/>
		<rect id="XMLID_7_" x="531.8" y="0" fill="#2E307E" width="868.2" height="980"/>
		<circle id="XMLID_6_" fill="#2E307E" cx="531.8" cy="850.7" r="246.5"/>
		<polygon id="XMLID_15_" fill="#F38620" points="700,980 1400,980 1400,490 		"/>
		<polygon id="XMLID_4_" fill="#3B7DBF" points="700,980 0,980 0,490 		"/>
		<circle id="XMLID_30_" fill="#E30C7E" cx="1050" cy="735" r="131.4"/>
		<path id="XMLID_42_" fill="#2E307E" d="M1050,866.4c-44.5,0-83.9-22.2-107.6-56l215.3-150.7c15,21.3,23.7,47.3,23.7,75.3
			C1181.4,807.6,1122.6,866.4,1050,866.4z"/>
		<g id="XMLID_26_">
			<path id="XMLID_72_" fill="#3B7DBF" d="M727.1,905.2l-50.8-11.6c-34.9-8-56.7-42.8-48.7-77.6l31-135.4
				c8-34.9,42.8-56.7,77.6-48.7l50.8,11.6c34.9,8,56.7,42.8,48.7,77.6l-31,135.4C796.8,891.4,762,913.2,727.1,905.2z"/>
			<g id="XMLID_59_">
				<path id="XMLID_65_" fill="#2E307E" d="M675,832.7L675,832.7c-7.1-1.6-14.1,2.8-15.7,9.8l-9.3,40.6c6,4.1,12.8,7.3,20.3,9l4.3,1
					l10.3-44.7C686.4,841.3,682,834.3,675,832.7z"/>
				<path id="XMLID_61_" fill="#2E307E" d="M716.1,842.1c-7.1-1.6-14.1,2.8-15.7,9.8l-10.3,44.7l25.6,5.9l10.3-44.7
					C727.5,850.8,723.1,843.7,716.1,842.1z"/>
				<path id="XMLID_60_" fill="#2E307E" d="M754.8,851c-7.1-1.6-14.1,2.8-15.7,9.8l-10.3,44.7l4.3,1c7.5,1.7,15,1.9,22.2,0.8
					l9.3-40.6C766.3,859.6,761.9,852.6,754.8,851z"/>
			</g>
			<g id="XMLID_54_">
				<path id="XMLID_58_" fill="#2E307E" d="M788.5,704.3L788.5,704.3c7.1,1.6,14.1-2.8,15.7-9.8l9.3-40.6c-6-4.1-12.8-7.3-20.3-9
					l-4.3-1l-10.3,44.7C777,695.7,781.4,702.7,788.5,704.3z"/>
				<path id="XMLID_56_" fill="#2E307E" d="M747.3,694.9c7.1,1.6,14.1-2.8,15.7-9.8l10.3-44.7l-25.6-5.9l-10.3,44.7
					C735.9,686.3,740.3,693.3,747.3,694.9z"/>
				<path id="XMLID_55_" fill="#2E307E" d="M708.6,686c7.1,1.6,14.1-2.8,15.7-9.8l10.3-44.7l-4.3-1c-7.5-1.7-15-1.9-22.2-0.8
					l-9.3,40.6C697.1,677.4,701.5,684.4,708.6,686z"/>
			</g>
			<path id="XMLID_52_" fill="#FFF200" d="M730.1,941.1L658,924.6c-5.4-1.2-8.7-6.6-7.5-12l3.4-15c1.2-5.4,6.6-8.7,12-7.5l72.1,16.5
				c5.4,1.2,8.7,6.6,7.5,12l-3.4,15C740.8,939,735.5,942.4,730.1,941.1z"/>
			
				<rect id="XMLID_51_" x="665.5" y="931.5" transform="matrix(0.9747 0.2234 -0.2234 0.9747 237.6987 -127.3171)" fill="#2E307E" width="32.3" height="111.1"/>
			<g id="XMLID_31_">
				<path id="XMLID_45_" fill="#FFF200" d="M820.8,844.4l-85.2-19.5c-5.1-1.2-8.3-6.3-7.1-11.4l1.6-7c1.2-5.1,6.3-8.3,11.4-7.1
					l85.2,19.5c5.1,1.2,8.3,6.3,7.1,11.4l-1.6,7C831,842.4,825.9,845.6,820.8,844.4z"/>
				<path id="XMLID_44_" fill="#FFF200" d="M830.2,803.3L745,783.8c-5.1-1.2-8.3-6.3-7.1-11.4l1.6-7c1.2-5.1,6.3-8.3,11.4-7.1
					l85.2,19.5c5.1,1.2,8.3,6.3,7.1,11.4l-1.6,7C840.4,801.3,835.3,804.5,830.2,803.3z"/>
				<path id="XMLID_40_" fill="#FFF200" d="M839.1,764.5L753.9,745c-5.1-1.2-8.3-6.3-7.1-11.4l1.6-7c1.2-5.1,6.3-8.3,11.4-7.1
					L845,739c5.1,1.2,8.3,6.3,7.1,11.4l-1.6,7C849.3,762.5,844.2,765.7,839.1,764.5z"/>
				<path id="XMLID_39_" fill="#FFF200" d="M703.6,817.6L618.4,798c-5.1-1.2-8.3-6.3-7.1-11.4l1.6-7c1.2-5.1,6.3-8.3,11.4-7.1
					l85.2,19.5c5.1,1.2,8.3,6.3,7.1,11.4l-1.6,7C713.8,815.5,708.7,818.7,703.6,817.6z"/>
				<path id="XMLID_38_" fill="#FFF200" d="M713.1,776.4l-85.2-19.5c-5.1-1.2-8.3-6.3-7.1-11.4l1.6-7c1.2-5.1,6.3-8.3,11.4-7.1
					l85.2,19.5c5.1,1.2,8.3,6.3,7.1,11.4l-1.6,7C723.3,774.4,718.2,777.6,713.1,776.4z"/>
				<path id="XMLID_37_" fill="#FFF200" d="M721.9,737.7l-85.2-19.5c-5.1-1.2-8.3-6.3-7.1-11.4l1.6-7c1.2-5.1,6.3-8.3,11.4-7.1
					l85.2,19.5c5.1,1.2,8.3,6.3,7.1,11.4l-1.6,7C732.1,735.7,727,738.8,721.9,737.7z"/>
			</g>
		</g>
		<g id="XMLID_12_">
			<path id="XMLID_167_" fill="#FFF200" d="M1308.9,874.2c9.4-24.6,45.6-30.2,57.8-55.8c28.1-59.4-1-133.8-65.4-166.7
				c-67.6-34.6-147.6-11.8-177.6,50c-12.2,25.1,5.7,56.6-7.6,78.9c-18.8,31.4-69.2,33.7-87.1,68.7c-35.4,69.5-1.7,158.1,75,196.5
				c77.7,38.9,169.2,12.5,203.6-58.4C1325.3,951.2,1295.6,909.1,1308.9,874.2z"/>
			<circle id="XMLID_166_" fill="#2E307E" cx="1195.8" cy="861.9" r="74.8"/>
			
				<rect id="XMLID_164_" x="1088.5" y="959.2" transform="matrix(0.8997 0.4366 -0.4366 0.8997 537.8173 -402.1919)" fill="#E30C7E" width="110.8" height="19.3"/>
			
				<rect id="XMLID_163_" x="1256.1" y="496.1" transform="matrix(0.8997 0.4366 -0.4366 0.8997 422.002 -495.4157)" fill="#3B7DBF" width="65.4" height="348.5"/>
			
				<rect id="XMLID_141_" x="1336.7" y="433.8" transform="matrix(0.8997 0.4366 -0.4366 0.8997 349.5048 -553.7713)" fill="#2E307E" width="85.5" height="99.3"/>
		</g>
		<g id="XMLID_5_">
			
				<ellipse id="XMLID_101_" transform="matrix(0.9663 0.2574 -0.2574 0.9663 153.4383 -9.862995e-02)" fill="#2E307E" cx="77.1" cy="586" rx="219.6" ry="65.6"/>
			<path id="XMLID_100_" fill="#3B7DBF" d="M73.3,600.3c39.8,10.6,77.8,17.2,111.2,20c2.6-4.2,4.6-8.9,6-13.9l40.7-152.9
				c7.5-28.2-9.2-57.1-37.4-64.6L74,357c-28.2-7.5-57.1,9.2-64.6,37.4l-40.7,152.9c-1.3,5-1.9,10.1-1.8,15.1
				C-2.8,576.5,33.5,589.7,73.3,600.3z"/>
			<path id="XMLID_99_" fill="#FFF200" d="M-20.6,506.8l-10.8,40.4c-1.3,5-1.9,10.1-1.8,15.1c30.3,14.2,66.6,27.3,106.4,37.9
				c39.8,10.6,77.8,17.2,111.2,20c2.6-4.2,4.6-8.9,6-13.9l10.8-40.4C199.8,571-21.9,511.9-20.6,506.8z"/>
		</g>
		<g id="XMLID_8_">
			<path id="XMLID_25_" fill="#FFF200" d="M310.1,1057.8l-403.2-167c-8.6-3.6-12.7-13.4-9.1-22L2.4,616.1c3.6-8.6,13.4-12.7,22-9.1
				l403.2,167c8.6,3.6,12.7,13.4,9.1,22l-104.6,252.7C328.6,1057.2,318.7,1061.3,310.1,1057.8z"/>
			<path id="XMLID_24_" fill="#3B7DBF" d="M305.4,1020.2L-63.1,867.6c-4.2-1.7-6.2-6.6-4.5-10.8l86-207.8c1.7-4.2,6.6-6.2,10.8-4.5
				l368.5,152.6c4.2,1.7,6.2,6.6,4.5,10.8l-86,207.8C314.4,1019.9,309.6,1021.9,305.4,1020.2z"/>
			<path id="XMLID_23_" fill="#2E307E" d="M-25.5,755.2l-41.4,99.9c-2.1,5.1,0.3,11,5.5,13.2l365.1,151.2c5.1,2.1,11-0.3,13.2-5.5
				l41.4-99.9L-25.5,755.2z"/>
			<g id="XMLID_115_">
				<circle id="XMLID_17_" fill="#FFFFFF" cx="62.7" cy="789" r="26.9"/>
			</g>
			<g id="XMLID_113_">
				<circle id="XMLID_16_" fill="#FFFFFF" cx="271.9" cy="875.7" r="26.9"/>
			</g>
			<path id="XMLID_11_" fill="#E30C7E" d="M175.7,920.4L99,888.7c-3.6-1.5-5.3-5.6-3.8-9.2l3.5-8.4c1.5-3.6,5.6-5.3,9.2-3.8
				l76.7,31.8c3.6,1.5,5.3,5.6,3.8,9.2l-3.5,8.4C183.4,920.2,179.3,921.9,175.7,920.4z"/>
			<path id="XMLID_10_" fill="#F38620" d="M311.4,761.4l-195.9-81.1L93,671L85.5,689l-3.2,7.8l-3.9,9.4c-4.1,10,2.6,22.3,15.1,27.4
				l195.9,81.1c12.5,5.2,25.9,1.2,30-8.8l3.9-9.4l3.2-7.8l7.5-18.1L311.4,761.4z"/>
			<g id="XMLID_109_">
				<path id="XMLID_9_" fill="#E30C7E" d="M305,723.1l-157.9-65.4l-18.2-7.5l-7.5,18.2l-3.3,7.9l-3.9,9.5
					c-4.2,10,0.6,21.5,10.6,25.7l157.9,65.4c10,4.2,21.5-0.6,25.7-10.6l3.9-9.5l3.3-7.9l7.5-18.2L305,723.1z"/>
			</g>
		</g>
		<g id="XMLID_13_">
			<path id="XMLID_132_" fill="#FFFFFF" d="M1293,379.2c-13.2-16.6-42.5-11.9-42.5-11.9l0,0.5l-0.2,0l-24.9,99.1
				c-5.3-2.8-11.8-4.4-18.8-4.7c-19.4-1-35.8,9.3-36.5,23.1c-0.7,13.8,14.4,25.8,33.9,26.8c19.1,1,35-15.5,35-15.5l25-99.4
				c10.5-4.5,14.3,1.8,26.2,11.7c20.1,16.6,47.8-13.4,47.8-13.4S1306.2,395.8,1293,379.2z"/>
			<path id="XMLID_131_" fill="#FFFFFF" d="M1133.3,244.5l-5,19.9l0,0l-24.9,99.1c-5.3-2.8-11.8-4.4-18.8-4.7
				c-19.4-1-35.8,9.3-36.5,23.1c-0.7,13.8,14.4,25.8,33.9,26.8c19.1,1,35-15.5,35-15.5l27.8-110.6l72.9,7.6l-20.6,81.9
				c-5.3-2.8-11.8-4.4-18.8-4.7c-19.4-1-35.8,9.3-36.5,23.1c-0.7,13.8,14.4,25.8,33.9,26.8c19.1,1,35-15.5,35-15.5l27.5-109.4
				l3.6-14.3l5.4-21.5L1133.3,244.5z"/>
		</g>
		<rect id="XMLID_33_" x="232.9" y="153.8" fill="#FFFFFF" width="782" height="159"/>
		<g id="XMLID_32_">
			<path id="XMLID_71_" fill="#2E307E" d="M762.3,201.3c-4.2-4.6-10.6-6.9-19.2-6.9c-9,0-16,2.5-20.9,7.6c-5,5-7.5,12.1-7.5,21.2v47
				h22v-17.6h9.9v17.6h22v-47.8C768.5,212.9,766.5,205.9,762.3,201.3z"/>
			<path id="XMLID_67_" fill="#2E307E" d="M838.7,270.3L826,239.8c6.5-5.1,9.8-11.4,9.8-18.9c0-7.3-2.6-13.4-7.9-18.2
				c-4.7-4.3-11.4-6.4-20-6.4h-28.2v74h22v-31.2l13.9,31.2H838.7z"/>
			<path id="XMLID_28_" fill="#2E307E" d="M888.7,217.5v52.7h-22v-52.7h-16.9v-21.2h55.7v21.2H888.7z"/>
			<path id="XMLID_63_" fill="#2E307E" d="M980.6,196.3l-20.9,32.9v41.1h-22v-41.1l-21.1-32.9H939l9.5,15.2l10.2-15.2H980.6z"/>
			<path id="XMLID_27_" fill="#2E307E" d="M695.9,202c-5.1-5.1-11.4-7.6-18.9-7.6c-4.2,0-8.2,0.8-12.1,2.5c-3.9,1.7-7.2,4-9.8,6.9
				c-2.3,2.6-3.9,5.5-4.9,8.5c-1,3.1-1.4,7-1.4,11.7v46.1h22v-25.6h3.6l3.4,0.1c8.5,0,14.8-2.1,19-6.2c4.6-4.5,6.9-10.4,6.9-17.7
				C703.5,213.4,701,207.1,695.9,202z"/>
			<path id="XMLID_21_" fill="#2E307E" d="M267.2,196.3h26.9c15.9,0,23.9,6.3,23.9,18.8c0,6.2-2.7,11.4-8.2,15.5
				c7.9,3.4,11.9,9.6,11.9,18.4c0,6.8-2.3,12.1-7,16.2c-2.3,1.9-4.7,3.3-7.3,4c-2.6,0.8-6.1,1.1-10.5,1.1h-29.6V196.3z"/>
			<path id="XMLID_57_" fill="#2E307E" d="M332.9,196.3h22v44c0,3.4,0.6,5.7,1.7,6.9c1.1,1.1,3.3,1.7,6.5,1.7h11.5v21.5h-16.2
				c-8,0-14.3-2.3-18.8-7c-4.5-4.7-6.7-11.2-6.7-19.5V196.3z"/>
			<path id="XMLID_18_" fill="#2E307E" d="M425.3,194.5c10.5,0,19.5,3.8,27,11.4c7.5,7.6,11.2,16.7,11.2,27.4
				c0,10.8-3.8,20-11.3,27.5c-7.6,7.6-16.7,11.3-27.5,11.3c-10.7,0-19.9-3.8-27.5-11.4s-11.4-16.7-11.4-27.5
				c0-10.8,3.8-20,11.5-27.5C404.9,198.2,414.2,194.5,425.3,194.5z"/>
			<path id="XMLID_3_" fill="#2E307E" d="M556.9,196.3v74h-22v-74H556.9z M599.1,196.3l-19.5,33.5l19.4,40.4h-24.7l-16.7-40.9
				l19-33.1H599.1z"/>
			<path id="XMLID_1_" fill="#2E307E" d="M523.7,246.7c-2.7,2.4-6.2,3.6-10.5,3.6c-4.6,0-8.4-1.6-11.4-4.7c-3-3.2-4.5-7.2-4.5-12
				c0-5,1.5-9.2,4.6-12.4c3.1-3.3,6.9-4.9,11.6-4.9c4.2,0,7.6,1.3,10.2,3.9v-24.6c-3-0.7-6.3-1.1-9.7-1.1c-11.1,0-20.4,3.8-28,11.3
				c-7.6,7.5-11.4,16.8-11.4,27.8c0,10.9,3.7,20.1,11.1,27.5c7.4,7.4,16.6,11.1,27.7,11.1c3.6,0,7-0.4,10.2-1.1V246.7z"/>
		</g>
		<circle id="XMLID_34_" fill="#2E307E" cx="172.4" cy="232.4" r="16.6"/>
		<path id="XMLID_73_" fill="#FFFFFF" d="M614.5,450.4c-16.7,0-30.4,12.9-30.6,28.9l0,0.5c0,5.1-4.8,9.3-10.6,9.3
			s-10.6-4.2-10.6-9.3l0-0.4l0,0c-0.2-16-13.9-28.9-30.6-28.9c-16.9,0-30.6,13.2-30.6,29.3v0.1c-0.1,5.1-4.8,9.2-10.6,9.2
			c-5.8,0-10.6-4.2-10.6-9.3l0-0.4l0,0c-0.2-16-13.9-28.9-30.6-28.9c-16.7,0-30.4,12.9-30.6,28.9l0,0.5c0,5.1-4.8,9.3-10.6,9.3
			s-10.6-4.2-10.6-9.3l0-0.4l0,0c-0.2-16-13.9-28.9-30.6-28.9c-16.9,0-30.6,13.2-30.6,29.3c0,5.5,4.5,10,10,10s10-4.5,10-10
			c0-5.1,4.8-9.3,10.6-9.3s10.6,4.2,10.6,9.3l0,0.4l0,0c0.2,16,13.9,28.9,30.6,28.9c16.7,0,30.4-13,30.6-28.9l0-0.5
			c0-5.1,4.8-9.3,10.6-9.3s10.6,4.2,10.6,9.3l0,0.4l0,0c0.2,16,13.9,28.9,30.6,28.9c16.9,0,30.6-13.2,30.6-29.3l0-0.1
			c0.1-5.1,4.8-9.2,10.6-9.2c5.8,0,10.6,4.2,10.6,9.3l0,0.4l0,0c0.2,16,13.9,28.9,30.6,28.9c16.7,0,30.4-13,30.6-28.9l0-0.5
			c0-5.1,4.8-9.3,10.6-9.3s10.6,4.2,10.6,9.3c0,5.5,4.5,10,10,10s10-4.5,10-10C645.1,463.6,631.4,450.4,614.5,450.4z"/>
	</g>
</g>
</svg>
